<?xml version="1.0" encoding="UTF-8" standalone="no"?>
<!DOCTYPE svg PUBLIC "-//W3C//DTD SVG 1.1//EN"
 "http://www.w3.org/Graphics/SVG/1.1/DTD/svg11.dtd">
<!-- Generated by graphviz version 14.1.5 (20260411.2331)
 -->
<!-- Title: ScriptableObject Pages: 1 -->
<!--zoomable 780 -->

<svg id="main" version="1.1" xmlns="http://www.w3.org/2000/svg" xmlns:xlink="http://www.w3.org/1999/xlink" xml:space="preserve" onload="init(evt)">

<style type="text/css"><![CDATA[
.node, .edge {opacity: 0.7;}
.node.selected, .edge.selected {opacity: 1;}
.edge:hover path { stroke: red; }
.edge:hover polygon { stroke: red; fill: red; }
]]></style>

<defs>
  <circle id="rim" cx="0" cy="0" r="7"/>
  <circle id="rim2" cx="0" cy="0" r="3.5"/>
  <g id="zoomPlus">
    <use xlink:href="#rim" fill="#404040"><set attributeName="fill" to="#808080" begin="zoomplus.mouseover" end="zoomplus.mouseout"/></use>
    <path d="M-4,0h8M0,-4v8" fill="none" stroke="white" stroke-width="1.5" pointer-events="none"/>
  </g>
  <g id="zoomMin">
    <use xlink:href="#rim" fill="#404040"><set attributeName="fill" to="#808080" begin="zoomminus.mouseover" end="zoomminus.mouseout"/></use>
    <path d="M-4,0h8" fill="none" stroke="white" stroke-width="1.5" pointer-events="none"/>
  </g>
  <g id="arrowUp" transform="translate(30 24)">
    <use xlink:href="#rim"/>
    <path pointer-events="none" fill="none" stroke="white" stroke-width="1.5" d="M0,-3.0v7 M-2.5,-0.5L0,-3.0L2.5,-0.5"/>
  </g>
  <g id="arrowRight" transform="rotate(90) translate(36 -43)">
    <use xlink:href="#rim"/>
    <path pointer-events="none" fill="none" stroke="white" stroke-width="1.5" d="M0,-3.0v7 M-2.5,-0.5L0,-3.0L2.5,-0.5"/>
  </g>
  <g id="arrowDown" transform="rotate(180) translate(-30 -48)">
    <use xlink:href="#rim"/>
    <path pointer-events="none" fill="none" stroke="white" stroke-width="1.5" d="M0,-3.0v7 M-2.5,-0.5L0,-3.0L2.5,-0.5"/>
  </g>
  <g id="arrowLeft" transform="rotate(270) translate(-36 17)">
    <use xlink:href="#rim"/>
    <path pointer-events="none" fill="none" stroke="white" stroke-width="1.5" d="M0,-3.0v7 M-2.5,-0.5L0,-3.0L2.5,-0.5"/>
  </g>
  <g id="resetDef">
    <use xlink:href="#rim2" fill="#404040"><set attributeName="fill" to="#808080" begin="reset.mouseover" end="reset.mouseout"/></use>
  </g>
</defs>
<script type="application/ecmascript">
var viewWidth = 654;
var viewHeight = 780;
var sectionId = 'dynsection-0';
</script>
<script type="application/ecmascript" xlink:href="svg.min.js"/>
<svg id="graph" class="graph">
<g id="viewport">
<title>ScriptableObject</title>
<!-- Node1 -->
<g id="Node000001" class="node">
<title>Node1</title>
<g id="a_Node000001"><a xlink:title=" ">
<polygon fill="#999999" stroke="none" points="366.5,-772 286.5,-772 286.5,-720 366.5,-720 366.5,-772"/>
<text xml:space="preserve" text-anchor="start" x="290.5" y="-758.25" font-family="Helvetica,sans-Serif" font-size="10.00">ScriptableObject</text>
<text xml:space="preserve" text-anchor="start" x="325" y="-742.25" font-family="Helvetica,sans-Serif" font-size="10.00"> </text>
<text xml:space="preserve" text-anchor="start" x="325" y="-726.25" font-family="Helvetica,sans-Serif" font-size="10.00"> </text>
<polygon fill="#666666" stroke="#666666" points="286.5,-754 286.5,-754 366.5,-754 366.5,-754 286.5,-754"/>
<polygon fill="#666666" stroke="#666666" points="286.5,-738 286.5,-738 366.5,-738 366.5,-738 286.5,-738"/>
<polygon fill="none" stroke="#666666" points="286.5,-720 286.5,-772 366.5,-772 366.5,-720 286.5,-720"/>
</a>
</g>
</g>
<!-- Node2 -->
<g id="Node000002" class="node">
<title>Node2</title>
<g id="a_Node000002"><a xlink:href="class_generation_1_1_area.html" target="_top" xlink:title="Holds references and default data for an entire area.">
<polygon fill="white" stroke="none" points="153,-538 0,-538 0,-258 153,-258 153,-538"/>
<text xml:space="preserve" text-anchor="start" x="41.25" y="-524.25" font-family="Helvetica,sans-Serif" font-size="10.00">Generation.Area</text>
<text xml:space="preserve" text-anchor="start" x="4" y="-508.25" font-family="Helvetica,sans-Serif" font-size="10.00">+</text>
<text xml:space="preserve" text-anchor="start" x="14" y="-508.25" font-family="Helvetica,sans-Serif" font-size="10.00">AreaType areaType</text>
<text xml:space="preserve" text-anchor="start" x="4" y="-492.25" font-family="Helvetica,sans-Serif" font-size="10.00">+</text>
<text xml:space="preserve" text-anchor="start" x="14" y="-492.25" font-family="Helvetica,sans-Serif" font-size="10.00">int smallestEndRoomSize</text>
<text xml:space="preserve" text-anchor="start" x="4" y="-476.25" font-family="Helvetica,sans-Serif" font-size="10.00">+</text>
<text xml:space="preserve" text-anchor="start" x="14" y="-476.25" font-family="Helvetica,sans-Serif" font-size="10.00">int WalkDirectionRepetition</text>
<text xml:space="preserve" text-anchor="start" x="14" y="-464.25" font-family="Helvetica,sans-Serif" font-size="10.00">Allowance</text>
<text xml:space="preserve" text-anchor="start" x="5.5" y="-448.25" font-family="Helvetica,sans-Serif" font-size="10.00">&#45;</text>
<text xml:space="preserve" text-anchor="start" x="14" y="-448.25" font-family="Helvetica,sans-Serif" font-size="10.00">int minSize</text>
<text xml:space="preserve" text-anchor="start" x="5.5" y="-432.25" font-family="Helvetica,sans-Serif" font-size="10.00">&#45;</text>
<text xml:space="preserve" text-anchor="start" x="14" y="-432.25" font-family="Helvetica,sans-Serif" font-size="10.00">int maxSize</text>
<text xml:space="preserve" text-anchor="start" x="5.5" y="-416.25" font-family="Helvetica,sans-Serif" font-size="10.00">&#45;</text>
<text xml:space="preserve" text-anchor="start" x="14" y="-416.25" font-family="Helvetica,sans-Serif" font-size="10.00">int walkDirectionRepetition</text>
<text xml:space="preserve" text-anchor="start" x="14" y="-404.25" font-family="Helvetica,sans-Serif" font-size="10.00">Allowance</text>
<text xml:space="preserve" text-anchor="start" x="5.5" y="-388.25" font-family="Helvetica,sans-Serif" font-size="10.00">&#45;</text>
<text xml:space="preserve" text-anchor="start" x="14" y="-388.25" font-family="Helvetica,sans-Serif" font-size="10.00">List&lt; TypedRoomList</text>
<text xml:space="preserve" text-anchor="start" x="14" y="-376.25" font-family="Helvetica,sans-Serif" font-size="10.00"> &gt; roomTypes</text>
<text xml:space="preserve" text-anchor="start" x="5.5" y="-360.25" font-family="Helvetica,sans-Serif" font-size="10.00">&#45;</text>
<text xml:space="preserve" text-anchor="start" x="14" y="-360.25" font-family="Helvetica,sans-Serif" font-size="10.00">RoomList endRooms</text>
<text xml:space="preserve" text-anchor="start" x="5.5" y="-344.25" font-family="Helvetica,sans-Serif" font-size="10.00">&#45;</text>
<text xml:space="preserve" text-anchor="start" x="14" y="-344.25" font-family="Helvetica,sans-Serif" font-size="10.00">SliderAndTextInstance</text>
<text xml:space="preserve" text-anchor="start" x="14" y="-332.25" font-family="Helvetica,sans-Serif" font-size="10.00">[] sliderAndTextInstances</text>
<text xml:space="preserve" text-anchor="start" x="4" y="-316.25" font-family="Helvetica,sans-Serif" font-size="10.00">+</text>
<text xml:space="preserve" text-anchor="start" x="14" y="-316.25" font-family="Helvetica,sans-Serif" font-size="10.00">AreaRuntime GetAreaGenData</text>
<text xml:space="preserve" text-anchor="start" x="14" y="-304.25" font-family="Helvetica,sans-Serif" font-size="10.00">(string seed)</text>
<text xml:space="preserve" text-anchor="start" x="4" y="-288.25" font-family="Helvetica,sans-Serif" font-size="10.00">+</text>
<text xml:space="preserve" text-anchor="start" x="14" y="-288.25" font-family="Helvetica,sans-Serif" font-size="10.00">void CreatUI(Transform</text>
<text xml:space="preserve" text-anchor="start" x="14" y="-276.25" font-family="Helvetica,sans-Serif" font-size="10.00"> parent, GameObject sliderAnd</text>
<text xml:space="preserve" text-anchor="start" x="14" y="-264.25" font-family="Helvetica,sans-Serif" font-size="10.00">TextPrefab)</text>
<polygon fill="#666666" stroke="#666666" points="0,-520 0,-520 153,-520 153,-520 0,-520"/>
<polygon fill="#666666" stroke="#666666" points="0,-328 0,-328 12,-328 12,-328 0,-328"/>
<polygon fill="#666666" stroke="#666666" points="12,-328 12,-328 153,-328 153,-328 12,-328"/>
<polygon fill="none" stroke="#666666" points="0,-258 0,-538 153,-538 153,-258 0,-258"/>
</a>
</g>
</g>
<!-- Node1&#45;&gt;Node2 -->
<g id="edge1_Node000001_Node000002" class="edge">
<title>Node1&#45;&gt;Node2</title>
<g id="a_edge1_Node000001_Node000002"><a xlink:title=" ">
<path fill="none" stroke="#63b8ff" d="M275.69,-738.42C239.18,-731.1 191.32,-715.8 161.5,-684 124.33,-644.36 103.35,-589.14 91.54,-537.85"/>
<polygon fill="none" stroke="#63b8ff" points="274.67,-741.79 285.14,-740.17 275.94,-734.9 274.67,-741.79"/>
</a>
</g>
</g>
<!-- Node3 -->
<g id="Node000003" class="node">
<title>Node3</title>
<g id="a_Node000003"><a xlink:href="class_generation_1_1_typed_room_list.html" target="_top" xlink:title="Holds a list of rooms, of a certain type, used in an area&#39;s roomTypes list.">
<polygon fill="white" stroke="none" points="312.38,-506 170.62,-506 170.62,-290 312.38,-290 312.38,-506"/>
<text xml:space="preserve" text-anchor="start" x="182.25" y="-492.25" font-family="Helvetica,sans-Serif" font-size="10.00">Generation.TypedRoomList</text>
<text xml:space="preserve" text-anchor="start" x="174.62" y="-476.25" font-family="Helvetica,sans-Serif" font-size="10.00">+</text>
<text xml:space="preserve" text-anchor="start" x="184.62" y="-476.25" font-family="Helvetica,sans-Serif" font-size="10.00">RoomType roomType</text>
<text xml:space="preserve" text-anchor="start" x="174.62" y="-460.25" font-family="Helvetica,sans-Serif" font-size="10.00">+</text>
<text xml:space="preserve" text-anchor="start" x="184.62" y="-460.25" font-family="Helvetica,sans-Serif" font-size="10.00">int smallestRoomSize</text>
<text xml:space="preserve" text-anchor="start" x="174.62" y="-444.25" font-family="Helvetica,sans-Serif" font-size="10.00">+</text>
<text xml:space="preserve" text-anchor="start" x="184.62" y="-444.25" font-family="Helvetica,sans-Serif" font-size="10.00">float Weight</text>
<text xml:space="preserve" text-anchor="start" x="174.62" y="-428.25" font-family="Helvetica,sans-Serif" font-size="10.00">+</text>
<text xml:space="preserve" text-anchor="start" x="184.62" y="-428.25" font-family="Helvetica,sans-Serif" font-size="10.00">RoomList Rooms</text>
<text xml:space="preserve" text-anchor="start" x="176.12" y="-412.25" font-family="Helvetica,sans-Serif" font-size="10.00">&#45;</text>
<text xml:space="preserve" text-anchor="start" x="184.62" y="-412.25" font-family="Helvetica,sans-Serif" font-size="10.00">float weight</text>
<text xml:space="preserve" text-anchor="start" x="176.12" y="-396.25" font-family="Helvetica,sans-Serif" font-size="10.00">&#45;</text>
<text xml:space="preserve" text-anchor="start" x="184.62" y="-396.25" font-family="Helvetica,sans-Serif" font-size="10.00">RoomList rooms</text>
<text xml:space="preserve" text-anchor="start" x="174.62" y="-380.25" font-family="Helvetica,sans-Serif" font-size="10.00">+</text>
<text xml:space="preserve" text-anchor="start" x="184.62" y="-380.25" font-family="Helvetica,sans-Serif" font-size="10.00">TypedRoomList Duplicate()</text>
<text xml:space="preserve" text-anchor="start" x="174.62" y="-364.25" font-family="Helvetica,sans-Serif" font-size="10.00">+</text>
<text xml:space="preserve" text-anchor="start" x="184.62" y="-364.25" font-family="Helvetica,sans-Serif" font-size="10.00">virtual void OnPicked</text>
<text xml:space="preserve" text-anchor="start" x="184.62" y="-352.25" font-family="Helvetica,sans-Serif" font-size="10.00">(AreaRuntime pickedArea)</text>
<text xml:space="preserve" text-anchor="start" x="174.62" y="-336.25" font-family="Helvetica,sans-Serif" font-size="10.00">+</text>
<text xml:space="preserve" text-anchor="start" x="184.62" y="-336.25" font-family="Helvetica,sans-Serif" font-size="10.00">virtual void UndoPicked</text>
<text xml:space="preserve" text-anchor="start" x="184.62" y="-324.25" font-family="Helvetica,sans-Serif" font-size="10.00">(AreaRuntime pickedArea)</text>
<text xml:space="preserve" text-anchor="start" x="176.12" y="-308.25" font-family="Helvetica,sans-Serif" font-size="10.00">&#45;</text>
<text xml:space="preserve" text-anchor="start" x="184.62" y="-308.25" font-family="Helvetica,sans-Serif" font-size="10.00">static string RoomDataList</text>
<text xml:space="preserve" text-anchor="start" x="184.62" y="-296.25" font-family="Helvetica,sans-Serif" font-size="10.00">ToString(List&lt; Room &gt; data)</text>
<polygon fill="#666666" stroke="#666666" points="170.62,-488 170.62,-488 312.38,-488 312.38,-488 170.62,-488"/>
<polygon fill="#666666" stroke="#666666" points="170.62,-392 170.62,-392 182.62,-392 182.62,-392 170.62,-392"/>
<polygon fill="#666666" stroke="#666666" points="182.62,-392 182.62,-392 312.38,-392 312.38,-392 182.62,-392"/>
<polygon fill="none" stroke="#666666" points="170.62,-290 170.62,-506 312.38,-506 312.38,-290 170.62,-290"/>
</a>
</g>
</g>
<!-- Node1&#45;&gt;Node3 -->
<g id="edge2_Node000001_Node000003" class="edge">
<title>Node1&#45;&gt;Node3</title>
<g id="a_edge2_Node000001_Node000003"><a xlink:title=" ">
<path fill="none" stroke="#63b8ff" d="M317.7,-709.16C306,-661.56 284.84,-575.4 267.78,-505.96"/>
<polygon fill="none" stroke="#63b8ff" points="314.24,-709.77 320.03,-718.65 321.04,-708.1 314.24,-709.77"/>
</a>
</g>
</g>
<!-- Node5 -->
<g id="Node000005" class="node">
<title>Node5</title>
<g id="a_Node000005"><a xlink:href="class_generation_1_1_world_gen.html" target="_top" xlink:title="Holds the generation algorithm, tying all gen data together.">
<polygon fill="white" stroke="none" points="494.62,-684 330.38,-684 330.38,-112 494.62,-112 494.62,-684"/>
<text xml:space="preserve" text-anchor="start" x="366" y="-670.25" font-family="Helvetica,sans-Serif" font-size="10.00">Generation.WorldGen</text>
<text xml:space="preserve" text-anchor="start" x="334.38" y="-654.25" font-family="Helvetica,sans-Serif" font-size="10.00">+</text>
<text xml:space="preserve" text-anchor="start" x="344.38" y="-654.25" font-family="Helvetica,sans-Serif" font-size="10.00">int RoomRepetitionAllowance</text>
<text xml:space="preserve" text-anchor="start" x="334.38" y="-638.25" font-family="Helvetica,sans-Serif" font-size="10.00">+</text>
<text xml:space="preserve" text-anchor="start" x="344.38" y="-638.25" font-family="Helvetica,sans-Serif" font-size="10.00">int MaxTries</text>
<text xml:space="preserve" text-anchor="start" x="334.38" y="-622.25" font-family="Helvetica,sans-Serif" font-size="10.00">+</text>
<text xml:space="preserve" text-anchor="start" x="344.38" y="-622.25" font-family="Helvetica,sans-Serif" font-size="10.00">int MaxOverlapAttempts</text>
<text xml:space="preserve" text-anchor="start" x="334.38" y="-606.25" font-family="Helvetica,sans-Serif" font-size="10.00">+</text>
<text xml:space="preserve" text-anchor="start" x="344.38" y="-606.25" font-family="Helvetica,sans-Serif" font-size="10.00">int MaxOverlapAttemptsBrute</text>
<text xml:space="preserve" text-anchor="start" x="344.38" y="-594.25" font-family="Helvetica,sans-Serif" font-size="10.00">Force</text>
<text xml:space="preserve" text-anchor="start" x="335.88" y="-578.25" font-family="Helvetica,sans-Serif" font-size="10.00">&#45;</text>
<text xml:space="preserve" text-anchor="start" x="344.38" y="-578.25" font-family="Helvetica,sans-Serif" font-size="10.00">MonoBehaviour owner</text>
<text xml:space="preserve" text-anchor="start" x="335.88" y="-562.25" font-family="Helvetica,sans-Serif" font-size="10.00">&#45;</text>
<text xml:space="preserve" text-anchor="start" x="344.38" y="-562.25" font-family="Helvetica,sans-Serif" font-size="10.00">List&lt; Area &gt; areaData</text>
<text xml:space="preserve" text-anchor="start" x="335.88" y="-546.25" font-family="Helvetica,sans-Serif" font-size="10.00">&#45;</text>
<text xml:space="preserve" text-anchor="start" x="344.38" y="-546.25" font-family="Helvetica,sans-Serif" font-size="10.00">int roomRepetitionAllowance</text>
<text xml:space="preserve" text-anchor="start" x="335.88" y="-530.25" font-family="Helvetica,sans-Serif" font-size="10.00">&#45;</text>
<text xml:space="preserve" text-anchor="start" x="344.38" y="-530.25" font-family="Helvetica,sans-Serif" font-size="10.00">float minDistToBossRoom</text>
<text xml:space="preserve" text-anchor="start" x="335.88" y="-514.25" font-family="Helvetica,sans-Serif" font-size="10.00">&#45;</text>
<text xml:space="preserve" text-anchor="start" x="344.38" y="-514.25" font-family="Helvetica,sans-Serif" font-size="10.00">int maxTries</text>
<text xml:space="preserve" text-anchor="start" x="335.88" y="-498.25" font-family="Helvetica,sans-Serif" font-size="10.00">&#45;</text>
<text xml:space="preserve" text-anchor="start" x="344.38" y="-498.25" font-family="Helvetica,sans-Serif" font-size="10.00">int maxOverlapAttempts</text>
<text xml:space="preserve" text-anchor="start" x="335.88" y="-482.25" font-family="Helvetica,sans-Serif" font-size="10.00">&#45;</text>
<text xml:space="preserve" text-anchor="start" x="344.38" y="-482.25" font-family="Helvetica,sans-Serif" font-size="10.00">int maxOverlapAttemptsBrute</text>
<text xml:space="preserve" text-anchor="start" x="344.38" y="-470.25" font-family="Helvetica,sans-Serif" font-size="10.00">Force</text>
<text xml:space="preserve" text-anchor="start" x="335.88" y="-454.25" font-family="Helvetica,sans-Serif" font-size="10.00">&#45;</text>
<text xml:space="preserve" text-anchor="start" x="344.38" y="-454.25" font-family="Helvetica,sans-Serif" font-size="10.00">Action&lt; WorldGenSnapshot</text>
<text xml:space="preserve" text-anchor="start" x="344.38" y="-442.25" font-family="Helvetica,sans-Serif" font-size="10.00"> &gt; onUpdateSnapshot</text>
<text xml:space="preserve" text-anchor="start" x="335.88" y="-426.25" font-family="Helvetica,sans-Serif" font-size="10.00">&#45;</text>
<text xml:space="preserve" text-anchor="start" x="344.38" y="-426.25" font-family="Helvetica,sans-Serif" font-size="10.00">float animWaitTime</text>
<text xml:space="preserve" text-anchor="start" x="335.88" y="-410.25" font-family="Helvetica,sans-Serif" font-size="10.00">&#45;</text>
<text xml:space="preserve" text-anchor="start" x="344.38" y="-410.25" font-family="Helvetica,sans-Serif" font-size="10.00">WorldGenRuntime? genRuntime</text>
<text xml:space="preserve" text-anchor="start" x="334.38" y="-394.25" font-family="Helvetica,sans-Serif" font-size="10.00">+</text>
<text xml:space="preserve" text-anchor="start" x="344.38" y="-394.25" font-family="Helvetica,sans-Serif" font-size="10.00">void SetOwner(MonoBehaviour o)</text>
<text xml:space="preserve" text-anchor="start" x="334.38" y="-378.25" font-family="Helvetica,sans-Serif" font-size="10.00">+</text>
<text xml:space="preserve" text-anchor="start" x="344.38" y="-378.25" font-family="Helvetica,sans-Serif" font-size="10.00">void SetAnimWaitTime</text>
<text xml:space="preserve" text-anchor="start" x="344.38" y="-366.25" font-family="Helvetica,sans-Serif" font-size="10.00">(float w)</text>
<text xml:space="preserve" text-anchor="start" x="334.38" y="-350.25" font-family="Helvetica,sans-Serif" font-size="10.00">+</text>
<text xml:space="preserve" text-anchor="start" x="344.38" y="-350.25" font-family="Helvetica,sans-Serif" font-size="10.00">float GetAnimWaitTime()</text>
<text xml:space="preserve" text-anchor="start" x="334.38" y="-334.25" font-family="Helvetica,sans-Serif" font-size="10.00">+</text>
<text xml:space="preserve" text-anchor="start" x="344.38" y="-334.25" font-family="Helvetica,sans-Serif" font-size="10.00">YieldInstruction GetAnim</text>
<text xml:space="preserve" text-anchor="start" x="344.38" y="-322.25" font-family="Helvetica,sans-Serif" font-size="10.00">YieldInstruction()</text>
<text xml:space="preserve" text-anchor="start" x="334.38" y="-306.25" font-family="Helvetica,sans-Serif" font-size="10.00">+</text>
<text xml:space="preserve" text-anchor="start" x="344.38" y="-306.25" font-family="Helvetica,sans-Serif" font-size="10.00">Action&lt; WorldGenSnapshot</text>
<text xml:space="preserve" text-anchor="start" x="344.38" y="-294.25" font-family="Helvetica,sans-Serif" font-size="10.00"> &gt; GetOnUpdateSnapshot</text>
<text xml:space="preserve" text-anchor="start" x="344.38" y="-282.25" font-family="Helvetica,sans-Serif" font-size="10.00">(WorldGenRuntime runtime)</text>
<text xml:space="preserve" text-anchor="start" x="334.38" y="-266.25" font-family="Helvetica,sans-Serif" font-size="10.00">+</text>
<text xml:space="preserve" text-anchor="start" x="344.38" y="-266.25" font-family="Helvetica,sans-Serif" font-size="10.00">void InstantiateAreaData()</text>
<text xml:space="preserve" text-anchor="start" x="334.38" y="-250.25" font-family="Helvetica,sans-Serif" font-size="10.00">+</text>
<text xml:space="preserve" text-anchor="start" x="344.38" y="-250.25" font-family="Helvetica,sans-Serif" font-size="10.00">IEnumerator InitiateGen</text>
<text xml:space="preserve" text-anchor="start" x="344.38" y="-238.25" font-family="Helvetica,sans-Serif" font-size="10.00">(string seed, Action onFinish,</text>
<text xml:space="preserve" text-anchor="start" x="344.38" y="-226.25" font-family="Helvetica,sans-Serif" font-size="10.00"> Action&lt; WorldGenSnapshot &gt;</text>
<text xml:space="preserve" text-anchor="start" x="344.38" y="-214.25" font-family="Helvetica,sans-Serif" font-size="10.00"> setOnSnapShotUpdate)</text>
<text xml:space="preserve" text-anchor="start" x="334.38" y="-198.25" font-family="Helvetica,sans-Serif" font-size="10.00">+</text>
<text xml:space="preserve" text-anchor="start" x="344.38" y="-198.25" font-family="Helvetica,sans-Serif" font-size="10.00">int GetWalkDirectionRepetition</text>
<text xml:space="preserve" text-anchor="start" x="344.38" y="-186.25" font-family="Helvetica,sans-Serif" font-size="10.00">Allowance(AreaType areaType)</text>
<text xml:space="preserve" text-anchor="start" x="334.38" y="-170.25" font-family="Helvetica,sans-Serif" font-size="10.00">+</text>
<text xml:space="preserve" text-anchor="start" x="344.38" y="-170.25" font-family="Helvetica,sans-Serif" font-size="10.00">void StopGen()</text>
<text xml:space="preserve" text-anchor="start" x="334.38" y="-154.25" font-family="Helvetica,sans-Serif" font-size="10.00">+</text>
<text xml:space="preserve" text-anchor="start" x="344.38" y="-154.25" font-family="Helvetica,sans-Serif" font-size="10.00">void CreateAreaUI(Transform</text>
<text xml:space="preserve" text-anchor="start" x="344.38" y="-142.25" font-family="Helvetica,sans-Serif" font-size="10.00"> mainParent, GameObject</text>
<text xml:space="preserve" text-anchor="start" x="344.38" y="-130.25" font-family="Helvetica,sans-Serif" font-size="10.00"> areaUIPrefab, GameObject</text>
<text xml:space="preserve" text-anchor="start" x="344.38" y="-118.25" font-family="Helvetica,sans-Serif" font-size="10.00"> sliderAndTextPrefab)</text>
<polygon fill="#666666" stroke="#666666" points="330.38,-666 330.38,-666 494.62,-666 494.62,-666 330.38,-666"/>
<polygon fill="#666666" stroke="#666666" points="330.38,-406 330.38,-406 342.38,-406 342.38,-406 330.38,-406"/>
<polygon fill="#666666" stroke="#666666" points="342.38,-406 342.38,-406 494.62,-406 494.62,-406 342.38,-406"/>
<polygon fill="none" stroke="#666666" points="330.38,-112 330.38,-684 494.62,-684 494.62,-112 330.38,-112"/>
</a>
</g>
</g>
<!-- Node1&#45;&gt;Node5 -->
<g id="edge4_Node000001_Node000005" class="edge">
<title>Node1&#45;&gt;Node5</title>
<g id="a_edge4_Node000001_Node000005"><a xlink:title=" ">
<path fill="none" stroke="#63b8ff" d="M335.42,-709.12C337.29,-701.59 339.4,-693.1 341.69,-683.87"/>
<polygon fill="none" stroke="#63b8ff" points="332.07,-708.1 333.05,-718.65 338.86,-709.79 332.07,-708.1"/>
</a>
</g>
</g>
<!-- Node6 -->
<g id="Node000006" class="node">
<title>Node6</title>
<g id="a_Node000006"><a xlink:href="class_weapon.html" target="_top" xlink:title=" ">
<polygon fill="white" stroke="none" points="645.88,-454 513.12,-454 513.12,-342 645.88,-342 645.88,-454"/>
<text xml:space="preserve" text-anchor="start" x="561.88" y="-440.25" font-family="Helvetica,sans-Serif" font-size="10.00">Weapon</text>
<text xml:space="preserve" text-anchor="start" x="517.12" y="-424.25" font-family="Helvetica,sans-Serif" font-size="10.00">+</text>
<text xml:space="preserve" text-anchor="start" x="527.12" y="-424.25" font-family="Helvetica,sans-Serif" font-size="10.00">float attackRange</text>
<text xml:space="preserve" text-anchor="start" x="517.12" y="-408.25" font-family="Helvetica,sans-Serif" font-size="10.00">+</text>
<text xml:space="preserve" text-anchor="start" x="527.12" y="-408.25" font-family="Helvetica,sans-Serif" font-size="10.00">float damage</text>
<text xml:space="preserve" text-anchor="start" x="517.12" y="-392.25" font-family="Helvetica,sans-Serif" font-size="10.00">+</text>
<text xml:space="preserve" text-anchor="start" x="527.12" y="-392.25" font-family="Helvetica,sans-Serif" font-size="10.00">GameObject Prefab</text>
<text xml:space="preserve" text-anchor="start" x="518.62" y="-376.25" font-family="Helvetica,sans-Serif" font-size="10.00">&#45;</text>
<text xml:space="preserve" text-anchor="start" x="527.12" y="-376.25" font-family="Helvetica,sans-Serif" font-size="10.00">GameObject prefab</text>
<text xml:space="preserve" text-anchor="start" x="517.12" y="-360.25" font-family="Helvetica,sans-Serif" font-size="10.00">+</text>
<text xml:space="preserve" text-anchor="start" x="527.12" y="-360.25" font-family="Helvetica,sans-Serif" font-size="10.00">bool IsInRange(Vector2</text>
<text xml:space="preserve" text-anchor="start" x="527.12" y="-348.25" font-family="Helvetica,sans-Serif" font-size="10.00"> origin, GameObject other)</text>
<polygon fill="#666666" stroke="#666666" points="513.12,-436 513.12,-436 645.88,-436 645.88,-436 513.12,-436"/>
<polygon fill="#666666" stroke="#666666" points="513.12,-372 513.12,-372 525.12,-372 525.12,-372 513.12,-372"/>
<polygon fill="#666666" stroke="#666666" points="525.12,-372 525.12,-372 645.88,-372 645.88,-372 525.12,-372"/>
<polygon fill="none" stroke="#666666" points="513.12,-342 513.12,-454 645.88,-454 645.88,-342 513.12,-342"/>
</a>
</g>
</g>
<!-- Node1&#45;&gt;Node6 -->
<g id="edge5_Node000001_Node000006" class="edge">
<title>Node1&#45;&gt;Node6</title>
<g id="a_edge5_Node000001_Node000006"><a xlink:title=" ">
<path fill="none" stroke="#63b8ff" d="M377.74,-740.26C417.42,-733.89 470.94,-718.97 503.5,-684 562.3,-620.85 576.62,-517.36 579.54,-453.99"/>
<polygon fill="none" stroke="#63b8ff" points="377.32,-736.78 367.92,-741.69 378.32,-743.71 377.32,-736.78"/>
</a>
</g>
</g>
<!-- Node4 -->
<g id="Node000004" class="node">
<title>Node4</title>
<g id="a_Node000004"><a xlink:href="class_generation_1_1_single_use_typed_room_list.html" target="_top" xlink:title=" ">
<polygon fill="white" stroke="none" points="307.88,-76 175.12,-76 175.12,0 307.88,0 307.88,-76"/>
<text xml:space="preserve" text-anchor="start" x="180.75" y="-62.25" font-family="Helvetica,sans-Serif" font-size="10.00">Generation.SingleUseTyped</text>
<text xml:space="preserve" text-anchor="start" x="220.5" y="-50.25" font-family="Helvetica,sans-Serif" font-size="10.00">RoomList</text>
<text xml:space="preserve" text-anchor="start" x="240" y="-34.25" font-family="Helvetica,sans-Serif" font-size="10.00"> </text>
<text xml:space="preserve" text-anchor="start" x="179.12" y="-18.25" font-family="Helvetica,sans-Serif" font-size="10.00">+</text>
<text xml:space="preserve" text-anchor="start" x="189.12" y="-18.25" font-family="Helvetica,sans-Serif" font-size="10.00">override void OnPicked</text>
<text xml:space="preserve" text-anchor="start" x="189.12" y="-6.25" font-family="Helvetica,sans-Serif" font-size="10.00">(AreaRuntime pickedArea)</text>
<polygon fill="#666666" stroke="#666666" points="175.12,-46 175.12,-46 307.88,-46 307.88,-46 175.12,-46"/>
<polygon fill="#666666" stroke="#666666" points="175.12,-30 175.12,-30 307.88,-30 307.88,-30 175.12,-30"/>
<polygon fill="none" stroke="#666666" points="175.12,0 175.12,-76 307.88,-76 307.88,0 175.12,0"/>
</a>
</g>
</g>
<!-- Node3&#45;&gt;Node4 -->
<g id="edge3_Node000003_Node000004" class="edge">
<title>Node3&#45;&gt;Node4</title>
<g id="a_edge3_Node000003_Node000004"><a xlink:title=" ">
<path fill="none" stroke="#63b8ff" d="M241.5,-278.89C241.5,-208.36 241.5,-123.53 241.5,-75.98"/>
<polygon fill="none" stroke="#63b8ff" points="238,-278.56 241.5,-288.56 245,-278.56 238,-278.56"/>
</a>
</g>
</g>
</g>
</svg>

<g id="navigator" transform="translate(0 0)" fill="#404254">
  <rect fill="#f2f5e9" fill-opacity="0.5" stroke="#606060" stroke-width=".5" x="0" y="0" width="60" height="60"/>
  <use id="zoomplus" xlink:href="#zoomPlus" x="17" y="9" onmousedown="handleZoom(evt,'in')"/>
  <use id="zoomminus" xlink:href="#zoomMin" x="42" y="9" onmousedown="handleZoom(evt,'out')"/>
  <use id="reset" xlink:href="#resetDef" x="30" y="36" onmousedown="handleReset()"/>
   <use id="arrowup" xlink:href="#arrowUp" x="0" y="0" onmousedown="handlePan(0,-1)"/>
  <use id="arrowright" xlink:href="#arrowRight" x="0" y="0" onmousedown="handlePan(1,0)"/>
  <use id="arrowdown" xlink:href="#arrowDown" x="0" y="0" onmousedown="handlePan(0,1)"/>
  <use id="arrowleft" xlink:href="#arrowLeft" x="0" y="0" onmousedown="handlePan(-1,0)"/>
</g>
<svg viewBox="0 0 15 15" width="100%" height="30px" preserveAspectRatio="xMaxYMin meet">
 <g id="arrow_out" transform="scale(0.3 0.3)">
  <a xlink:href="class_scriptable_object__inherit__graph_org.svg" target="_base">
   <rect id="button" ry="5" rx="5" y="6" x="6" height="38" width="38"
        fill="#f2f5e9" fill-opacity="0.5" stroke="#606060" stroke-width="1.0"/>
   <path id="arrow"
     d="M 11.500037,31.436501 C 11.940474,20.09759 22.043105,11.32322 32.158766,21.979434 L 37.068811,17.246167 C 37.068811,17.246167 37.088388,32 37.088388,32 L 22.160133,31.978069 C 22.160133,31.978069 26.997745,27.140456 26.997745,27.140456 C 18.528582,18.264221 13.291696,25.230495 11.500037,31.436501 z"
     style="fill:#404040;"/>
  </a>
 </g>
</svg>

<style type='text/css'>
<![CDATA[
[data-mouse-over-selected='false'] { opacity: 0.7; }
[data-mouse-over-selected='true']  { opacity: 1.0; }
]]>
</style>
<script type="application/ecmascript"><![CDATA[
document.addEventListener('DOMContentLoaded', (event) => {
  highlightEdges();
  highlightAdjacentNodes();
});
]]></script>
</svg>
