<?xml version="1.0" encoding="UTF-8" standalone="no"?>
<!DOCTYPE svg PUBLIC "-//W3C//DTD SVG 1.1//EN"
 "http://www.w3.org/Graphics/SVG/1.1/DTD/svg11.dtd">
<!-- Generated by graphviz version 14.1.5 (20260411.2331)
 -->
<!-- Title: DirectionalStack Pages: 1 -->
<svg width="585pt" height="346pt"
 viewBox="0.00 0.00 585.00 346.00" xmlns="http://www.w3.org/2000/svg" xmlns:xlink="http://www.w3.org/1999/xlink">
<g id="graph0" class="graph" transform="scale(1 1) rotate(0) translate(4 342)">
<title>DirectionalStack</title>
<!-- Node1 -->
<g id="Node000001" class="node">
<title>Node1</title>
<g id="a_Node000001"><a xlink:title="A simple layout component, for stacking ui elements.">
<polygon fill="#999999" stroke="none" points="338.62,-184 172.88,-184 172.88,0 338.62,0 338.62,-184"/>
<text xml:space="preserve" text-anchor="start" x="219.75" y="-170.25" font-family="Helvetica,sans-Serif" font-size="10.00">DirectionalStack</text>
<text xml:space="preserve" text-anchor="start" x="254.25" y="-154.25" font-family="Helvetica,sans-Serif" font-size="10.00"> </text>
<text xml:space="preserve" text-anchor="start" x="176.88" y="-138.25" font-family="Helvetica,sans-Serif" font-size="10.00">&#45;</text>
<text xml:space="preserve" text-anchor="start" x="183.88" y="-138.25" font-family="Helvetica,sans-Serif" font-size="10.00">void Awake()</text>
<text xml:space="preserve" text-anchor="start" x="176.88" y="-122.25" font-family="Helvetica,sans-Serif" font-size="10.00">&#45;</text>
<text xml:space="preserve" text-anchor="start" x="183.88" y="-122.25" font-family="Helvetica,sans-Serif" font-size="10.00">void OnEnable()</text>
<text xml:space="preserve" text-anchor="start" x="176.88" y="-106.25" font-family="Helvetica,sans-Serif" font-size="10.00">&#45;</text>
<text xml:space="preserve" text-anchor="start" x="183.88" y="-106.25" font-family="Helvetica,sans-Serif" font-size="10.00">void Update()</text>
<text xml:space="preserve" text-anchor="start" x="176.88" y="-90.25" font-family="Helvetica,sans-Serif" font-size="10.00">&#45;</text>
<text xml:space="preserve" text-anchor="start" x="183.88" y="-90.25" font-family="Helvetica,sans-Serif" font-size="10.00">void OnTransformChildren</text>
<text xml:space="preserve" text-anchor="start" x="183.88" y="-78.25" font-family="Helvetica,sans-Serif" font-size="10.00">Changed()</text>
<text xml:space="preserve" text-anchor="start" x="176.88" y="-62.25" font-family="Helvetica,sans-Serif" font-size="10.00">&#45;</text>
<text xml:space="preserve" text-anchor="start" x="183.88" y="-62.25" font-family="Helvetica,sans-Serif" font-size="10.00">void OnRectTransformDimensions</text>
<text xml:space="preserve" text-anchor="start" x="183.88" y="-50.25" font-family="Helvetica,sans-Serif" font-size="10.00">Change()</text>
<text xml:space="preserve" text-anchor="start" x="176.88" y="-34.25" font-family="Helvetica,sans-Serif" font-size="10.00">&#45;</text>
<text xml:space="preserve" text-anchor="start" x="183.88" y="-34.25" font-family="Helvetica,sans-Serif" font-size="10.00">void UpdateLayout()</text>
<text xml:space="preserve" text-anchor="start" x="176.88" y="-18.25" font-family="Helvetica,sans-Serif" font-size="10.00">&#45;</text>
<text xml:space="preserve" text-anchor="start" x="183.88" y="-18.25" font-family="Helvetica,sans-Serif" font-size="10.00">static Vector2 GetAnchor</text>
<text xml:space="preserve" text-anchor="start" x="183.88" y="-6.25" font-family="Helvetica,sans-Serif" font-size="10.00">Vector(TextAnchor anchor)</text>
<polygon fill="#666666" stroke="#666666" points="172.88,-166 172.88,-166 338.62,-166 338.62,-166 172.88,-166"/>
<polygon fill="#666666" stroke="#666666" points="172.88,-150 172.88,-150 338.62,-150 338.62,-150 172.88,-150"/>
<polygon fill="none" stroke="#666666" points="172.88,0 172.88,-184 338.62,-184 338.62,0 172.88,0"/>
</a>
</g>
</g>
<!-- Node2 -->
<g id="Node000002" class="node">
<title>Node2</title>
<g id="a_Node000002"><a xlink:title=" ">
<polygon fill="white" stroke="none" points="75.5,-338 0,-338 0,-286 75.5,-286 75.5,-338"/>
<text xml:space="preserve" text-anchor="start" x="4" y="-324.25" font-family="Helvetica,sans-Serif" font-size="10.00">MonoBehaviour</text>
<text xml:space="preserve" text-anchor="start" x="36.25" y="-308.25" font-family="Helvetica,sans-Serif" font-size="10.00"> </text>
<text xml:space="preserve" text-anchor="start" x="36.25" y="-292.25" font-family="Helvetica,sans-Serif" font-size="10.00"> </text>
<polygon fill="#666666" stroke="#666666" points="0,-320 0,-320 75.5,-320 75.5,-320 0,-320"/>
<polygon fill="#666666" stroke="#666666" points="0,-304 0,-304 75.5,-304 75.5,-304 0,-304"/>
<polygon fill="none" stroke="#666666" points="0,-286 0,-338 75.5,-338 75.5,-286 0,-286"/>
</a>
</g>
</g>
<!-- Node2&#45;&gt;Node1 -->
<g id="edge1_Node000001_Node000002" class="edge">
<title>Node2&#45;&gt;Node1</title>
<g id="a_edge1_Node000001_Node000002"><a xlink:title=" ">
<path fill="none" stroke="#63b8ff" d="M56.01,-276.42C68.94,-253.8 87.68,-224.39 108.75,-202 127.69,-181.87 150.74,-162.83 172.91,-146.47"/>
<polygon fill="none" stroke="#63b8ff" points="53.05,-274.53 51.23,-284.97 59.16,-277.95 53.05,-274.53"/>
</a>
</g>
</g>
<!-- Node3 -->
<g id="Node000003" class="node">
<title>Node3</title>
<g id="a_Node000003"><a xlink:title=" ">
<polygon fill="white" stroke="none" points="134.25,-338 93.25,-338 93.25,-286 134.25,-286 134.25,-338"/>
<text xml:space="preserve" text-anchor="start" x="97.25" y="-324.25" font-family="Helvetica,sans-Serif" font-size="10.00">Vector2</text>
<text xml:space="preserve" text-anchor="start" x="112.25" y="-308.25" font-family="Helvetica,sans-Serif" font-size="10.00"> </text>
<text xml:space="preserve" text-anchor="start" x="112.25" y="-292.25" font-family="Helvetica,sans-Serif" font-size="10.00"> </text>
<polygon fill="#666666" stroke="#666666" points="93.25,-320 93.25,-320 134.25,-320 134.25,-320 93.25,-320"/>
<polygon fill="#666666" stroke="#666666" points="93.25,-304 93.25,-304 134.25,-304 134.25,-304 93.25,-304"/>
<polygon fill="none" stroke="#666666" points="93.25,-286 93.25,-338 134.25,-338 134.25,-286 93.25,-286"/>
</a>
</g>
</g>
<!-- Node3&#45;&gt;Node1 -->
<g id="edge2_Node000001_Node000003" class="edge">
<title>Node3&#45;&gt;Node1</title>
<g id="a_edge2_Node000001_Node000003"><a xlink:title=" ">
<path fill="none" stroke="#63b8ff" d="M112.52,-286.07C112.46,-262.91 115.17,-228.16 129.5,-202 138.26,-186.01 150.35,-171.29 163.6,-158.18"/>
<polygon fill="none" stroke="#63b8ff" points="163.55,-158.23 165.16,-151.2 172.27,-149.99 170.66,-157.02 163.55,-158.23"/>
</a>
</g>
<text xml:space="preserve" text-anchor="start" x="132.5" y="-231.25" font-family="Helvetica,sans-Serif" font-size="10.00" fill="grey">&#45;layoutDirection</text>
</g>
<!-- Node4 -->
<g id="Node000004" class="node">
<title>Node4</title>
<g id="a_Node000004"><a xlink:title=" ">
<polygon fill="white" stroke="none" points="224.12,-338 197.38,-338 197.38,-286 224.12,-286 224.12,-338"/>
<text xml:space="preserve" text-anchor="start" x="201.38" y="-324.25" font-family="Helvetica,sans-Serif" font-size="10.00">float</text>
<text xml:space="preserve" text-anchor="start" x="209.25" y="-308.25" font-family="Helvetica,sans-Serif" font-size="10.00"> </text>
<text xml:space="preserve" text-anchor="start" x="209.25" y="-292.25" font-family="Helvetica,sans-Serif" font-size="10.00"> </text>
<polygon fill="#666666" stroke="#666666" points="197.38,-320 197.38,-320 224.12,-320 224.12,-320 197.38,-320"/>
<polygon fill="#666666" stroke="#666666" points="197.38,-304 197.38,-304 224.12,-304 224.12,-304 197.38,-304"/>
<polygon fill="none" stroke="#666666" points="197.38,-286 197.38,-338 224.12,-338 224.12,-286 197.38,-286"/>
</a>
</g>
</g>
<!-- Node4&#45;&gt;Node1 -->
<g id="edge3_Node000001_Node000004" class="edge">
<title>Node4&#45;&gt;Node1</title>
<g id="a_edge3_Node000001_Node000004"><a xlink:title=" ">
<path fill="none" stroke="#63b8ff" d="M208.45,-286.05C207,-263.79 206.34,-230.4 212,-202 212.37,-200.13 212.78,-198.24 213.21,-196.35"/>
<polygon fill="none" stroke="#63b8ff" points="213.22,-196.32 210.85,-189.51 216.23,-184.71 218.6,-191.52 213.22,-196.32"/>
</a>
</g>
<text xml:space="preserve" text-anchor="start" x="215" y="-239.25" font-family="Helvetica,sans-Serif" font-size="10.00" fill="grey">&#45;initialPadding</text>
<text xml:space="preserve" text-anchor="start" x="215" y="-223.25" font-family="Helvetica,sans-Serif" font-size="10.00" fill="grey">&#45;spacing</text>
</g>
<!-- Node5 -->
<g id="Node000005" class="node">
<title>Node5</title>
<g id="a_Node000005"><a xlink:title=" ">
<polygon fill="white" stroke="none" points="329.5,-338 272,-338 272,-286 329.5,-286 329.5,-338"/>
<text xml:space="preserve" text-anchor="start" x="276" y="-324.25" font-family="Helvetica,sans-Serif" font-size="10.00">TextAnchor</text>
<text xml:space="preserve" text-anchor="start" x="299.25" y="-308.25" font-family="Helvetica,sans-Serif" font-size="10.00"> </text>
<text xml:space="preserve" text-anchor="start" x="299.25" y="-292.25" font-family="Helvetica,sans-Serif" font-size="10.00"> </text>
<polygon fill="#666666" stroke="#666666" points="272,-320 272,-320 329.5,-320 329.5,-320 272,-320"/>
<polygon fill="#666666" stroke="#666666" points="272,-304 272,-304 329.5,-304 329.5,-304 272,-304"/>
<polygon fill="none" stroke="#666666" points="272,-286 272,-338 329.5,-338 329.5,-286 272,-286"/>
</a>
</g>
</g>
<!-- Node5&#45;&gt;Node1 -->
<g id="edge4_Node000001_Node000005" class="edge">
<title>Node5&#45;&gt;Node1</title>
<g id="a_edge4_Node000001_Node000005"><a xlink:title=" ">
<path fill="none" stroke="#63b8ff" d="M295.83,-286.31C291.41,-264.21 284.72,-230.93 278.75,-202 278.39,-200.26 278.03,-198.5 277.66,-196.73"/>
<polygon fill="none" stroke="#63b8ff" points="277.64,-196.62 272.5,-191.56 275.19,-184.87 280.33,-189.93 277.64,-196.62"/>
</a>
</g>
<text xml:space="preserve" text-anchor="start" x="294.92" y="-231.25" font-family="Helvetica,sans-Serif" font-size="10.00" fill="grey">&#45;childAlignment</text>
</g>
<!-- Node6 -->
<g id="Node000006" class="node">
<title>Node6</title>
<g id="a_Node000006"><a xlink:title=" ">
<polygon fill="white" stroke="none" points="409.75,-338 383.75,-338 383.75,-286 409.75,-286 409.75,-338"/>
<text xml:space="preserve" text-anchor="start" x="387.75" y="-324.25" font-family="Helvetica,sans-Serif" font-size="10.00">bool</text>
<text xml:space="preserve" text-anchor="start" x="395.25" y="-308.25" font-family="Helvetica,sans-Serif" font-size="10.00"> </text>
<text xml:space="preserve" text-anchor="start" x="395.25" y="-292.25" font-family="Helvetica,sans-Serif" font-size="10.00"> </text>
<polygon fill="#666666" stroke="#666666" points="383.75,-320 383.75,-320 409.75,-320 409.75,-320 383.75,-320"/>
<polygon fill="#666666" stroke="#666666" points="383.75,-304 383.75,-304 409.75,-304 409.75,-304 383.75,-304"/>
<polygon fill="none" stroke="#666666" points="383.75,-286 383.75,-338 409.75,-338 409.75,-286 383.75,-286"/>
</a>
</g>
</g>
<!-- Node6&#45;&gt;Node1 -->
<g id="edge5_Node000001_Node000006" class="edge">
<title>Node6&#45;&gt;Node1</title>
<g id="a_edge5_Node000001_Node000006"><a xlink:title=" ">
<path fill="none" stroke="#63b8ff" d="M394.29,-286.15C391.13,-263.05 384.09,-228.34 368.75,-202 362.64,-191.51 355.24,-181.37 347.18,-171.78"/>
<polygon fill="none" stroke="#63b8ff" points="347.08,-171.68 340.12,-169.82 339.16,-162.67 346.12,-164.53 347.08,-171.68"/>
</a>
</g>
<text xml:space="preserve" text-anchor="start" x="394.2" y="-255.25" font-family="Helvetica,sans-Serif" font-size="10.00" fill="grey">&#45;autoSnapAnchors</text>
<text xml:space="preserve" text-anchor="start" x="394.2" y="-239.25" font-family="Helvetica,sans-Serif" font-size="10.00" fill="grey">&#45;controlChildHeight</text>
<text xml:space="preserve" text-anchor="start" x="394.2" y="-223.25" font-family="Helvetica,sans-Serif" font-size="10.00" fill="grey">&#45;controlChildWidth</text>
<text xml:space="preserve" text-anchor="start" x="394.2" y="-207.25" font-family="Helvetica,sans-Serif" font-size="10.00" fill="grey">&#45;inverseStack</text>
</g>
<!-- Node7 -->
<g id="Node000007" class="node">
<title>Node7</title>
<g id="a_Node000007"><a xlink:title=" ">
<polygon fill="white" stroke="none" points="545.38,-338 472.12,-338 472.12,-286 545.38,-286 545.38,-338"/>
<text xml:space="preserve" text-anchor="start" x="476.12" y="-324.25" font-family="Helvetica,sans-Serif" font-size="10.00">RectTransform</text>
<text xml:space="preserve" text-anchor="start" x="507.25" y="-308.25" font-family="Helvetica,sans-Serif" font-size="10.00"> </text>
<text xml:space="preserve" text-anchor="start" x="507.25" y="-292.25" font-family="Helvetica,sans-Serif" font-size="10.00"> </text>
<polygon fill="#666666" stroke="#666666" points="472.12,-320 472.12,-320 545.38,-320 545.38,-320 472.12,-320"/>
<polygon fill="#666666" stroke="#666666" points="472.12,-304 472.12,-304 545.38,-304 545.38,-304 472.12,-304"/>
<polygon fill="none" stroke="#666666" points="472.12,-286 472.12,-338 545.38,-338 545.38,-286 472.12,-286"/>
</a>
</g>
</g>
<!-- Node7&#45;&gt;Node1 -->
<g id="edge6_Node000001_Node000007" class="edge">
<title>Node7&#45;&gt;Node1</title>
<g id="a_edge6_Node000001_Node000007"><a xlink:title=" ">
<path fill="none" stroke="#63b8ff" d="M509.28,-286.3C508.54,-262.32 503.92,-226.12 484.75,-202 451.29,-159.91 397.64,-133.17 350.68,-116.72"/>
<polygon fill="none" stroke="#63b8ff" points="350.82,-116.76 343.85,-118.64 339.44,-112.94 346.4,-111.06 350.82,-116.76"/>
</a>
</g>
<text xml:space="preserve" text-anchor="start" x="510.73" y="-231.25" font-family="Helvetica,sans-Serif" font-size="10.00" fill="grey">&#45;rectTransform</text>
</g>
</g>
</svg>
