<?xml version="1.0" encoding="UTF-8" standalone="no"?>
<!DOCTYPE svg PUBLIC "-//W3C//DTD SVG 1.1//EN"
 "http://www.w3.org/Graphics/SVG/1.1/DTD/svg11.dtd">
<!-- Generated by graphviz version 14.1.5 (20260411.2331)
 -->
<!-- Title: RoomTexturePreProcessor Pages: 1 -->
<svg width="237pt" height="228pt"
 viewBox="0.00 0.00 237.00 228.00" xmlns="http://www.w3.org/2000/svg" xmlns:xlink="http://www.w3.org/1999/xlink">
<g id="graph0" class="graph" transform="scale(1 1) rotate(0) translate(4 224)">
<title>RoomTexturePreProcessor</title>
<!-- Node1 -->
<g id="Node000001" class="node">
<title>Node1</title>
<g id="a_Node000001"><a xlink:title=" ">
<polygon fill="#999999" stroke="none" points="228.75,-132 0,-132 0,0 228.75,0 228.75,-132"/>
<text xml:space="preserve" text-anchor="start" x="55.5" y="-118.25" font-family="Helvetica,sans-Serif" font-size="10.00">RoomTexturePreProcessor</text>
<text xml:space="preserve" text-anchor="start" x="4" y="-102.25" font-family="Helvetica,sans-Serif" font-size="10.00">&#45;</text>
<text xml:space="preserve" text-anchor="start" x="11" y="-102.25" font-family="Helvetica,sans-Serif" font-size="10.00">const string TargetFolder</text>
<text xml:space="preserve" text-anchor="start" x="4" y="-86.25" font-family="Helvetica,sans-Serif" font-size="10.00">&#45;</text>
<text xml:space="preserve" text-anchor="start" x="11" y="-86.25" font-family="Helvetica,sans-Serif" font-size="10.00">void OnPreprocessTexture()</text>
<text xml:space="preserve" text-anchor="start" x="4" y="-70.25" font-family="Helvetica,sans-Serif" font-size="10.00">&#45;</text>
<text xml:space="preserve" text-anchor="start" x="11" y="-70.25" font-family="Helvetica,sans-Serif" font-size="10.00">static void OnPostprocess</text>
<text xml:space="preserve" text-anchor="start" x="11" y="-58.25" font-family="Helvetica,sans-Serif" font-size="10.00">AllAssets(string[] importedAssets,</text>
<text xml:space="preserve" text-anchor="start" x="11" y="-46.25" font-family="Helvetica,sans-Serif" font-size="10.00"> string[] deletedAssets, string</text>
<text xml:space="preserve" text-anchor="start" x="11" y="-34.25" font-family="Helvetica,sans-Serif" font-size="10.00">[] movedAssets, string[] movedFromAssetPaths)</text>
<text xml:space="preserve" text-anchor="start" x="4" y="-18.25" font-family="Helvetica,sans-Serif" font-size="10.00">&#45;</text>
<text xml:space="preserve" text-anchor="start" x="11" y="-18.25" font-family="Helvetica,sans-Serif" font-size="10.00">static bool IsTextureFile</text>
<text xml:space="preserve" text-anchor="start" x="11" y="-6.25" font-family="Helvetica,sans-Serif" font-size="10.00">(string path)</text>
<polygon fill="#666666" stroke="#666666" points="0,-114 0,-114 228.75,-114 228.75,-114 0,-114"/>
<polygon fill="#666666" stroke="#666666" points="0,-98 0,-98 9,-98 9,-98 0,-98"/>
<polygon fill="#666666" stroke="#666666" points="9,-98 9,-98 228.75,-98 228.75,-98 9,-98"/>
<polygon fill="none" stroke="#666666" points="0,0 0,-132 228.75,-132 228.75,0 0,0"/>
</a>
</g>
</g>
<!-- Node2 -->
<g id="Node000002" class="node">
<title>Node2</title>
<g id="a_Node000002"><a xlink:href="class_asset_postprocessor.html" target="_top" xlink:title=" ">
<polygon fill="white" stroke="none" points="162.62,-220 66.12,-220 66.12,-168 162.62,-168 162.62,-220"/>
<text xml:space="preserve" text-anchor="start" x="70.12" y="-206.25" font-family="Helvetica,sans-Serif" font-size="10.00">AssetPostprocessor</text>
<text xml:space="preserve" text-anchor="start" x="112.88" y="-190.25" font-family="Helvetica,sans-Serif" font-size="10.00"> </text>
<text xml:space="preserve" text-anchor="start" x="112.88" y="-174.25" font-family="Helvetica,sans-Serif" font-size="10.00"> </text>
<polygon fill="#666666" stroke="#666666" points="66.12,-202 66.12,-202 162.62,-202 162.62,-202 66.12,-202"/>
<polygon fill="#666666" stroke="#666666" points="66.12,-186 66.12,-186 162.62,-186 162.62,-186 66.12,-186"/>
<polygon fill="none" stroke="#666666" points="66.12,-168 66.12,-220 162.62,-220 162.62,-168 66.12,-168"/>
</a>
</g>
</g>
<!-- Node2&#45;&gt;Node1 -->
<g id="edge1_Node000001_Node000002" class="edge">
<title>Node2&#45;&gt;Node1</title>
<g id="a_edge1_Node000001_Node000002"><a xlink:title=" ">
<path fill="none" stroke="#63b8ff" d="M114.38,-156.79C114.38,-148.94 114.38,-140.4 114.38,-131.82"/>
<polygon fill="none" stroke="#63b8ff" points="110.88,-156.59 114.38,-166.59 117.88,-156.59 110.88,-156.59"/>
</a>
</g>
</g>
</g>
</svg>
