<?xml version="1.0" encoding="UTF-8" standalone="no"?>
<!DOCTYPE svg PUBLIC "-//W3C//DTD SVG 1.1//EN"
 "http://www.w3.org/Graphics/SVG/1.1/DTD/svg11.dtd">
<!-- Generated by graphviz version 14.1.5 (20260411.2331)
 -->
<!-- Title: BehaviourTree.SequenceNode Pages: 1 -->
<svg width="153pt" height="323pt"
 viewBox="0.00 0.00 153.00 323.00" xmlns="http://www.w3.org/2000/svg" xmlns:xlink="http://www.w3.org/1999/xlink">
<g id="graph0" class="graph" transform="scale(1 1) rotate(0) translate(4 319)">
<title>BehaviourTree.SequenceNode</title>
<!-- Node1 -->
<g id="Node000001" class="node">
<title>Node1</title>
<g id="a_Node000001"><a xlink:title=" ">
<polygon fill="#999999" stroke="none" points="142.62,-92 1.88,-92 1.88,0 142.62,0 142.62,-92"/>
<text xml:space="preserve" text-anchor="start" x="5.88" y="-78.25" font-family="Helvetica,sans-Serif" font-size="10.00">BehaviourTree.SequenceNode</text>
<text xml:space="preserve" text-anchor="start" x="70.75" y="-62.25" font-family="Helvetica,sans-Serif" font-size="10.00"> </text>
<text xml:space="preserve" text-anchor="start" x="12.56" y="-46.25" font-family="Helvetica,sans-Serif" font-size="10.00">+</text>
<text xml:space="preserve" text-anchor="start" x="29.25" y="-46.25" font-family="Helvetica,sans-Serif" font-size="10.00">SequenceNode(INode</text>
<text xml:space="preserve" text-anchor="start" x="29.25" y="-34.25" font-family="Helvetica,sans-Serif" font-size="10.00">[] children)</text>
<text xml:space="preserve" text-anchor="start" x="12.56" y="-18.25" font-family="Helvetica,sans-Serif" font-size="10.00">+</text>
<text xml:space="preserve" text-anchor="start" x="29.25" y="-18.25" font-family="Helvetica,sans-Serif" font-size="10.00">override NodeState</text>
<text xml:space="preserve" text-anchor="start" x="29.25" y="-6.25" font-family="Helvetica,sans-Serif" font-size="10.00"> Call()</text>
<polygon fill="#666666" stroke="#666666" points="1.88,-74 1.88,-74 142.62,-74 142.62,-74 1.88,-74"/>
<polygon fill="#666666" stroke="#666666" points="1.88,-58 1.88,-58 142.62,-58 142.62,-58 1.88,-58"/>
<polygon fill="none" stroke="#666666" points="1.88,0 1.88,-92 142.62,-92 142.62,0 1.88,0"/>
</a>
</g>
</g>
<!-- Node2 -->
<g id="Node000002" class="node">
<title>Node2</title>
<g id="a_Node000002"><a xlink:href="class_behaviour_tree_1_1_composite_node.html" target="_top" xlink:title=" ">
<polygon fill="white" stroke="none" points="144.5,-209 0,-209 0,-129 144.5,-129 144.5,-209"/>
<text xml:space="preserve" text-anchor="start" x="4" y="-195.25" font-family="Helvetica,sans-Serif" font-size="10.00">BehaviourTree.CompositeNode</text>
<text xml:space="preserve" text-anchor="start" x="70.75" y="-179.25" font-family="Helvetica,sans-Serif" font-size="10.00"> </text>
<text xml:space="preserve" text-anchor="start" x="10.69" y="-163.25" font-family="Helvetica,sans-Serif" font-size="10.00">+</text>
<text xml:space="preserve" text-anchor="start" x="27.38" y="-163.25" font-family="Helvetica,sans-Serif" font-size="10.00">NodeState Call()</text>
<text xml:space="preserve" text-anchor="start" x="11.06" y="-147.25" font-family="Helvetica,sans-Serif" font-size="10.00">#</text>
<text xml:space="preserve" text-anchor="start" x="27.38" y="-147.25" font-family="Helvetica,sans-Serif" font-size="10.00">CompositeNode(INode</text>
<text xml:space="preserve" text-anchor="start" x="27.38" y="-135.25" font-family="Helvetica,sans-Serif" font-size="10.00">[] children)</text>
<polygon fill="#666666" stroke="#666666" points="0,-191 0,-191 144.5,-191 144.5,-191 0,-191"/>
<polygon fill="#666666" stroke="#666666" points="0,-175 0,-175 144.5,-175 144.5,-175 0,-175"/>
<polygon fill="none" stroke="#666666" points="0,-129 0,-209 144.5,-209 144.5,-129 0,-129"/>
</a>
</g>
</g>
<!-- Node2&#45;&gt;Node1 -->
<g id="edge1_Node000001_Node000002" class="edge">
<title>Node2&#45;&gt;Node1</title>
<g id="a_edge1_Node000001_Node000002"><a xlink:title=" ">
<path fill="none" stroke="#63b8ff" d="M72.25,-117.6C72.25,-109.03 72.25,-100.18 72.25,-91.77"/>
<polygon fill="none" stroke="#63b8ff" points="68.75,-117.54 72.25,-127.54 75.75,-117.54 68.75,-117.54"/>
</a>
</g>
</g>
<!-- Node3 -->
<g id="Node000003" class="node">
<title>Node3</title>
<g id="a_Node000003"><a xlink:href="interface_behaviour_tree_1_1_i_node.html" target="_top" xlink:title=" ">
<polygon fill="white" stroke="none" points="122.38,-315 22.12,-315 22.12,-263 122.38,-263 122.38,-315"/>
<text xml:space="preserve" text-anchor="start" x="26.12" y="-301.25" font-family="Helvetica,sans-Serif" font-size="10.00">BehaviourTree.INode</text>
<text xml:space="preserve" text-anchor="start" x="70.75" y="-285.25" font-family="Helvetica,sans-Serif" font-size="10.00"> </text>
<text xml:space="preserve" text-anchor="start" x="28.5" y="-269.25" font-family="Helvetica,sans-Serif" font-size="10.00">+</text>
<text xml:space="preserve" text-anchor="start" x="40.88" y="-269.25" font-family="Helvetica,sans-Serif" font-size="10.00">NodeState Call()</text>
<polygon fill="#666666" stroke="#666666" points="22.12,-297 22.12,-297 122.38,-297 122.38,-297 22.12,-297"/>
<polygon fill="#666666" stroke="#666666" points="22.12,-281 22.12,-281 122.38,-281 122.38,-281 22.12,-281"/>
<polygon fill="none" stroke="#666666" points="22.12,-263 22.12,-315 122.38,-315 122.38,-263 22.12,-263"/>
</a>
</g>
</g>
<!-- Node3&#45;&gt;Node2 -->
<g id="edge2_Node000002_Node000003" class="edge">
<title>Node3&#45;&gt;Node2</title>
<g id="a_edge2_Node000002_Node000003"><a xlink:title=" ">
<path fill="none" stroke="#63b8ff" d="M70.46,-252.16C70.38,-249.74 70.3,-247.33 70.25,-245 69.98,-233.28 70.14,-220.53 70.47,-208.93"/>
<polygon fill="none" stroke="#63b8ff" points="66.95,-252.08 70.85,-261.94 73.95,-251.8 66.95,-252.08"/>
</a>
</g>
</g>
<!-- Node3&#45;&gt;Node2 -->
<g id="edge3_Node000002_Node000003" class="edge">
<title>Node3&#45;&gt;Node2</title>
<g id="a_edge3_Node000002_Node000003"><a xlink:title=" ">
<path fill="none" stroke="#63b8ff" d="M72.25,-263.26C72.25,-251.16 72.25,-236.1 72.25,-221.65"/>
<polygon fill="none" stroke="#63b8ff" points="72.25,-221.54 68.25,-215.54 72.25,-209.54 76.25,-215.54 72.25,-221.54"/>
</a>
</g>
<text xml:space="preserve" text-anchor="start" x="75.25" y="-232.25" font-family="Helvetica,sans-Serif" font-size="10.00" fill="grey">#children</text>
</g>
</g>
</svg>
