<?xml version="1.0" encoding="UTF-8" standalone="no"?>
<!DOCTYPE svg PUBLIC "-//W3C//DTD SVG 1.1//EN"
 "http://www.w3.org/Graphics/SVG/1.1/DTD/svg11.dtd">
<!-- Generated by graphviz version 14.1.5 (20260411.2331)
 -->
<!-- Title: RoomTexturePreProcessor Pages: 1 -->
<svg width="237pt" height="246pt"
 viewBox="0.00 0.00 237.00 246.00" xmlns="http://www.w3.org/2000/svg" xmlns:xlink="http://www.w3.org/1999/xlink">
<g id="graph0" class="graph" transform="scale(1 1) rotate(0) translate(4 242)">
<title>RoomTexturePreProcessor</title>
<!-- Node1 -->
<g id="Node000001" class="node">
<title>Node1</title>
<g id="a_Node000001"><a xlink:title=" ">
<polygon fill="#999999" stroke="none" points="228.75,-132 0,-132 0,0 228.75,0 228.75,-132"/>
<text xml:space="preserve" text-anchor="start" x="55.5" y="-118.25" font-family="Helvetica,sans-Serif" font-size="10.00">RoomTexturePreProcessor</text>
<text xml:space="preserve" text-anchor="start" x="112.88" y="-102.25" font-family="Helvetica,sans-Serif" font-size="10.00"> </text>
<text xml:space="preserve" text-anchor="start" x="4" y="-86.25" font-family="Helvetica,sans-Serif" font-size="10.00">&#45;</text>
<text xml:space="preserve" text-anchor="start" x="11" y="-86.25" font-family="Helvetica,sans-Serif" font-size="10.00">void OnPreprocessTexture()</text>
<text xml:space="preserve" text-anchor="start" x="4" y="-70.25" font-family="Helvetica,sans-Serif" font-size="10.00">&#45;</text>
<text xml:space="preserve" text-anchor="start" x="11" y="-70.25" font-family="Helvetica,sans-Serif" font-size="10.00">static void OnPostprocess</text>
<text xml:space="preserve" text-anchor="start" x="11" y="-58.25" font-family="Helvetica,sans-Serif" font-size="10.00">AllAssets(string[] importedAssets,</text>
<text xml:space="preserve" text-anchor="start" x="11" y="-46.25" font-family="Helvetica,sans-Serif" font-size="10.00"> string[] deletedAssets, string</text>
<text xml:space="preserve" text-anchor="start" x="11" y="-34.25" font-family="Helvetica,sans-Serif" font-size="10.00">[] movedAssets, string[] movedFromAssetPaths)</text>
<text xml:space="preserve" text-anchor="start" x="4" y="-18.25" font-family="Helvetica,sans-Serif" font-size="10.00">&#45;</text>
<text xml:space="preserve" text-anchor="start" x="11" y="-18.25" font-family="Helvetica,sans-Serif" font-size="10.00">static bool IsTextureFile</text>
<text xml:space="preserve" text-anchor="start" x="11" y="-6.25" font-family="Helvetica,sans-Serif" font-size="10.00">(string path)</text>
<polygon fill="#666666" stroke="#666666" points="0,-114 0,-114 228.75,-114 228.75,-114 0,-114"/>
<polygon fill="#666666" stroke="#666666" points="0,-98 0,-98 228.75,-98 228.75,-98 0,-98"/>
<polygon fill="none" stroke="#666666" points="0,0 0,-132 228.75,-132 228.75,0 0,0"/>
</a>
</g>
</g>
<!-- Node2 -->
<g id="Node000002" class="node">
<title>Node2</title>
<g id="a_Node000002"><a xlink:href="class_asset_postprocessor.html" target="_top" xlink:title=" ">
<polygon fill="white" stroke="none" points="121.62,-238 25.12,-238 25.12,-186 121.62,-186 121.62,-238"/>
<text xml:space="preserve" text-anchor="start" x="29.12" y="-224.25" font-family="Helvetica,sans-Serif" font-size="10.00">AssetPostprocessor</text>
<text xml:space="preserve" text-anchor="start" x="71.88" y="-208.25" font-family="Helvetica,sans-Serif" font-size="10.00"> </text>
<text xml:space="preserve" text-anchor="start" x="71.88" y="-192.25" font-family="Helvetica,sans-Serif" font-size="10.00"> </text>
<polygon fill="#666666" stroke="#666666" points="25.12,-220 25.12,-220 121.62,-220 121.62,-220 25.12,-220"/>
<polygon fill="#666666" stroke="#666666" points="25.12,-204 25.12,-204 121.62,-204 121.62,-204 25.12,-204"/>
<polygon fill="none" stroke="#666666" points="25.12,-186 25.12,-238 121.62,-238 121.62,-186 25.12,-186"/>
</a>
</g>
</g>
<!-- Node2&#45;&gt;Node1 -->
<g id="edge1_Node000001_Node000002" class="edge">
<title>Node2&#45;&gt;Node1</title>
<g id="a_edge1_Node000001_Node000002"><a xlink:title=" ">
<path fill="none" stroke="#63b8ff" d="M83.53,-175.33C87.27,-162.2 91.63,-146.88 95.88,-131.97"/>
<polygon fill="none" stroke="#63b8ff" points="80.21,-174.21 80.84,-184.79 86.94,-176.13 80.21,-174.21"/>
</a>
</g>
</g>
<!-- Node3 -->
<g id="Node000003" class="node">
<title>Node3</title>
<g id="a_Node000003"><a xlink:title=" ">
<polygon fill="white" stroke="none" points="171.38,-238 139.38,-238 139.38,-186 171.38,-186 171.38,-238"/>
<text xml:space="preserve" text-anchor="start" x="143.38" y="-224.25" font-family="Helvetica,sans-Serif" font-size="10.00">string</text>
<text xml:space="preserve" text-anchor="start" x="153.88" y="-208.25" font-family="Helvetica,sans-Serif" font-size="10.00"> </text>
<text xml:space="preserve" text-anchor="start" x="153.88" y="-192.25" font-family="Helvetica,sans-Serif" font-size="10.00"> </text>
<polygon fill="#666666" stroke="#666666" points="139.38,-220 139.38,-220 171.38,-220 171.38,-220 139.38,-220"/>
<polygon fill="#666666" stroke="#666666" points="139.38,-204 139.38,-204 171.38,-204 171.38,-204 139.38,-204"/>
<polygon fill="none" stroke="#666666" points="139.38,-186 139.38,-238 171.38,-238 171.38,-186 139.38,-186"/>
</a>
</g>
</g>
<!-- Node3&#45;&gt;Node1 -->
<g id="edge2_Node000001_Node000003" class="edge">
<title>Node3&#45;&gt;Node1</title>
<g id="a_edge2_Node000001_Node000003"><a xlink:title=" ">
<path fill="none" stroke="#63b8ff" d="M148.33,-186.25C144.95,-174.38 140.7,-159.45 136.36,-144.21"/>
<polygon fill="none" stroke="#63b8ff" points="136.41,-144.38 130.92,-139.7 133.12,-132.83 138.61,-137.51 136.41,-144.38"/>
</a>
</g>
<text xml:space="preserve" text-anchor="start" x="145.11" y="-155.25" font-family="Helvetica,sans-Serif" font-size="10.00" fill="grey">&#45;TargetFolder</text>
</g>
</g>
</svg>
