<?xml version="1.0" encoding="UTF-8" standalone="no"?>
<!DOCTYPE svg PUBLIC "-//W3C//DTD SVG 1.1//EN"
 "http://www.w3.org/Graphics/SVG/1.1/DTD/svg11.dtd">
<!-- Generated by graphviz version 14.1.5 (20260411.2331)
 -->
<!-- Title: Player.Movement Pages: 1 -->
<svg width="969pt" height="426pt"
 viewBox="0.00 0.00 969.00 426.00" xmlns="http://www.w3.org/2000/svg" xmlns:xlink="http://www.w3.org/1999/xlink">
<g id="graph0" class="graph" transform="scale(1 1) rotate(0) translate(4 422)">
<title>Player.Movement</title>
<!-- Node1 -->
<g id="Node000001" class="node">
<title>Node1</title>
<g id="a_Node000001"><a xlink:title=" ">
<polygon fill="#999999" stroke="none" points="549.62,-208 383.88,-208 383.88,0 549.62,0 549.62,-208"/>
<text xml:space="preserve" text-anchor="start" x="428.5" y="-194.25" font-family="Helvetica,sans-Serif" font-size="10.00">Player.Movement</text>
<text xml:space="preserve" text-anchor="start" x="387.88" y="-178.25" font-family="Helvetica,sans-Serif" font-size="10.00">+</text>
<text xml:space="preserve" text-anchor="start" x="397.88" y="-178.25" font-family="Helvetica,sans-Serif" font-size="10.00">UnityEvent&lt; bool &gt;</text>
<text xml:space="preserve" text-anchor="start" x="397.88" y="-166.25" font-family="Helvetica,sans-Serif" font-size="10.00"> IsMovingChanged</text>
<text xml:space="preserve" text-anchor="start" x="387.88" y="-150.25" font-family="Helvetica,sans-Serif" font-size="10.00">+</text>
<text xml:space="preserve" text-anchor="start" x="397.88" y="-150.25" font-family="Helvetica,sans-Serif" font-size="10.00">void Connect(InputAction</text>
<text xml:space="preserve" text-anchor="start" x="397.88" y="-138.25" font-family="Helvetica,sans-Serif" font-size="10.00">Asset inputAsset)</text>
<text xml:space="preserve" text-anchor="start" x="387.88" y="-122.25" font-family="Helvetica,sans-Serif" font-size="10.00">+</text>
<text xml:space="preserve" text-anchor="start" x="397.88" y="-122.25" font-family="Helvetica,sans-Serif" font-size="10.00">void Disconnect()</text>
<text xml:space="preserve" text-anchor="start" x="389.38" y="-106.25" font-family="Helvetica,sans-Serif" font-size="10.00">&#45;</text>
<text xml:space="preserve" text-anchor="start" x="397.88" y="-106.25" font-family="Helvetica,sans-Serif" font-size="10.00">void OnValidate()</text>
<text xml:space="preserve" text-anchor="start" x="389.38" y="-90.25" font-family="Helvetica,sans-Serif" font-size="10.00">&#45;</text>
<text xml:space="preserve" text-anchor="start" x="397.88" y="-90.25" font-family="Helvetica,sans-Serif" font-size="10.00">void OnMoveActionPerformed</text>
<text xml:space="preserve" text-anchor="start" x="397.88" y="-78.25" font-family="Helvetica,sans-Serif" font-size="10.00">(InputAction.CallbackContext ctx)</text>
<text xml:space="preserve" text-anchor="start" x="389.38" y="-62.25" font-family="Helvetica,sans-Serif" font-size="10.00">&#45;</text>
<text xml:space="preserve" text-anchor="start" x="397.88" y="-62.25" font-family="Helvetica,sans-Serif" font-size="10.00">void OnMoveActionStopped</text>
<text xml:space="preserve" text-anchor="start" x="397.88" y="-50.25" font-family="Helvetica,sans-Serif" font-size="10.00">(InputAction.CallbackContext ctx)</text>
<text xml:space="preserve" text-anchor="start" x="389.38" y="-34.25" font-family="Helvetica,sans-Serif" font-size="10.00">&#45;</text>
<text xml:space="preserve" text-anchor="start" x="397.88" y="-34.25" font-family="Helvetica,sans-Serif" font-size="10.00">void UpdateMovementData</text>
<text xml:space="preserve" text-anchor="start" x="397.88" y="-22.25" font-family="Helvetica,sans-Serif" font-size="10.00">(InputAction.CallbackContext ctx)</text>
<text xml:space="preserve" text-anchor="start" x="389.38" y="-6.25" font-family="Helvetica,sans-Serif" font-size="10.00">&#45;</text>
<text xml:space="preserve" text-anchor="start" x="397.88" y="-6.25" font-family="Helvetica,sans-Serif" font-size="10.00">void Update()</text>
<polygon fill="#666666" stroke="#666666" points="383.88,-190 383.88,-190 549.62,-190 549.62,-190 383.88,-190"/>
<polygon fill="#666666" stroke="#666666" points="383.88,-162 383.88,-162 395.88,-162 395.88,-162 383.88,-162"/>
<polygon fill="#666666" stroke="#666666" points="395.88,-162 395.88,-162 549.62,-162 549.62,-162 395.88,-162"/>
<polygon fill="none" stroke="#666666" points="383.88,0 383.88,-208 549.62,-208 549.62,0 383.88,0"/>
</a>
</g>
</g>
<!-- Node2 -->
<g id="Node000002" class="node">
<title>Node2</title>
<g id="a_Node000002"><a xlink:title=" ">
<polygon fill="white" stroke="none" points="75.5,-406 0,-406 0,-354 75.5,-354 75.5,-406"/>
<text xml:space="preserve" text-anchor="start" x="4" y="-392.25" font-family="Helvetica,sans-Serif" font-size="10.00">MonoBehaviour</text>
<text xml:space="preserve" text-anchor="start" x="36.25" y="-376.25" font-family="Helvetica,sans-Serif" font-size="10.00"> </text>
<text xml:space="preserve" text-anchor="start" x="36.25" y="-360.25" font-family="Helvetica,sans-Serif" font-size="10.00"> </text>
<polygon fill="#666666" stroke="#666666" points="0,-388 0,-388 75.5,-388 75.5,-388 0,-388"/>
<polygon fill="#666666" stroke="#666666" points="0,-372 0,-372 75.5,-372 75.5,-372 0,-372"/>
<polygon fill="none" stroke="#666666" points="0,-354 0,-406 75.5,-406 75.5,-354 0,-354"/>
</a>
</g>
</g>
<!-- Node2&#45;&gt;Node1 -->
<g id="edge11_Node000001_Node000002" class="edge">
<title>Node2&#45;&gt;Node1</title>
<g id="a_edge11_Node000001_Node000002"><a xlink:title=" ">
<path fill="none" stroke="#63b8ff" d="M59.26,-344.45C82.03,-310.31 120.86,-258.6 165.75,-226 232.05,-177.84 320.22,-145.34 383.98,-126.25"/>
<polygon fill="none" stroke="#63b8ff" points="56.37,-342.46 53.82,-352.74 62.23,-346.3 56.37,-342.46"/>
</a>
</g>
</g>
<!-- Node3 -->
<g id="Node000003" class="node">
<title>Node3</title>
<g id="a_Node000003"><a xlink:href="$interface_default_namespace_1_1_i_entity_movement.html" xlink:title=" ">
<polygon fill="white" stroke="none" points="217.5,-418 94,-418 94,-342 217.5,-342 217.5,-418"/>
<text xml:space="preserve" text-anchor="start" x="98" y="-404.25" font-family="Helvetica,sans-Serif" font-size="10.00">DefaultNamespace.IEntity</text>
<text xml:space="preserve" text-anchor="start" x="132.88" y="-392.25" font-family="Helvetica,sans-Serif" font-size="10.00">Movement</text>
<text xml:space="preserve" text-anchor="start" x="103.19" y="-376.25" font-family="Helvetica,sans-Serif" font-size="10.00">+</text>
<text xml:space="preserve" text-anchor="start" x="118.38" y="-376.25" font-family="Helvetica,sans-Serif" font-size="10.00">UnityEvent&lt; bool &gt;</text>
<text xml:space="preserve" text-anchor="start" x="118.38" y="-364.25" font-family="Helvetica,sans-Serif" font-size="10.00"> IsMovingChanged</text>
<text xml:space="preserve" text-anchor="start" x="154.25" y="-348.25" font-family="Helvetica,sans-Serif" font-size="10.00"> </text>
<polygon fill="#666666" stroke="#666666" points="94,-388 94,-388 217.5,-388 217.5,-388 94,-388"/>
<polygon fill="#666666" stroke="#666666" points="94,-360 94,-360 116.38,-360 116.38,-360 94,-360"/>
<polygon fill="#666666" stroke="#666666" points="116.38,-360 116.38,-360 217.5,-360 217.5,-360 116.38,-360"/>
<polygon fill="none" stroke="#666666" points="94,-342 94,-418 217.5,-418 217.5,-342 94,-342"/>
</a>
</g>
</g>
<!-- Node3&#45;&gt;Node1 -->
<g id="edge12_Node000001_Node000003" class="edge">
<title>Node3&#45;&gt;Node1</title>
<g id="a_edge12_Node000001_Node000003"><a xlink:title=" ">
<path fill="none" stroke="#63b8ff" d="M167.26,-331.43C177.28,-298.48 194.7,-255.41 222.75,-226 266.72,-179.89 332,-148.79 383.98,-129.69"/>
<polygon fill="none" stroke="#63b8ff" points="163.99,-330.16 164.57,-340.73 170.71,-332.11 163.99,-330.16"/>
</a>
</g>
</g>
<!-- Node4 -->
<g id="Node000004" class="node">
<title>Node4</title>
<g id="a_Node000004"><a xlink:title=" ">
<polygon fill="white" stroke="none" points="267.75,-406 235.75,-406 235.75,-354 267.75,-354 267.75,-406"/>
<text xml:space="preserve" text-anchor="start" x="239.75" y="-392.25" font-family="Helvetica,sans-Serif" font-size="10.00">string</text>
<text xml:space="preserve" text-anchor="start" x="250.25" y="-376.25" font-family="Helvetica,sans-Serif" font-size="10.00"> </text>
<text xml:space="preserve" text-anchor="start" x="250.25" y="-360.25" font-family="Helvetica,sans-Serif" font-size="10.00"> </text>
<polygon fill="#666666" stroke="#666666" points="235.75,-388 235.75,-388 267.75,-388 267.75,-388 235.75,-388"/>
<polygon fill="#666666" stroke="#666666" points="235.75,-372 235.75,-372 267.75,-372 267.75,-372 235.75,-372"/>
<polygon fill="none" stroke="#666666" points="235.75,-354 235.75,-406 267.75,-406 267.75,-354 235.75,-354"/>
</a>
</g>
</g>
<!-- Node4&#45;&gt;Node1 -->
<g id="edge13_Node000001_Node000004" class="edge">
<title>Node4&#45;&gt;Node1</title>
<g id="a_edge13_Node000001_Node000004"><a xlink:title=" ">
<path fill="none" stroke="#63b8ff" d="M241.44,-354.2C229.87,-322.15 215.63,-265.75 239.5,-226 268.3,-178.05 323.24,-148.06 371.89,-129.94"/>
<polygon fill="none" stroke="#63b8ff" points="371.96,-129.91 376.26,-124.13 383.26,-125.88 378.95,-131.67 371.96,-129.91"/>
</a>
</g>
<text xml:space="preserve" text-anchor="start" x="242.5" y="-271.25" font-family="Helvetica,sans-Serif" font-size="10.00" fill="grey">&#45;actionNameMovement</text>
</g>
<!-- Node5 -->
<g id="Node000005" class="node">
<title>Node5</title>
<g id="a_Node000005"><a xlink:title=" ">
<polygon fill="white" stroke="none" points="370.88,-406 306.62,-406 306.62,-354 370.88,-354 370.88,-406"/>
<text xml:space="preserve" text-anchor="start" x="310.62" y="-392.25" font-family="Helvetica,sans-Serif" font-size="10.00">Rigidbody2D</text>
<text xml:space="preserve" text-anchor="start" x="337.25" y="-376.25" font-family="Helvetica,sans-Serif" font-size="10.00"> </text>
<text xml:space="preserve" text-anchor="start" x="337.25" y="-360.25" font-family="Helvetica,sans-Serif" font-size="10.00"> </text>
<polygon fill="#666666" stroke="#666666" points="306.62,-388 306.62,-388 370.88,-388 370.88,-388 306.62,-388"/>
<polygon fill="#666666" stroke="#666666" points="306.62,-372 306.62,-372 370.88,-372 370.88,-372 306.62,-372"/>
<polygon fill="none" stroke="#666666" points="306.62,-354 306.62,-406 370.88,-406 370.88,-354 306.62,-354"/>
</a>
</g>
</g>
<!-- Node5&#45;&gt;Node1 -->
<g id="edge14_Node000001_Node000005" class="edge">
<title>Node5&#45;&gt;Node1</title>
<g id="a_edge14_Node000001_Node000005"><a xlink:title=" ">
<path fill="none" stroke="#63b8ff" d="M343.5,-354.01C349.97,-322.97 363.13,-268.87 383.5,-226 384.59,-223.71 385.72,-221.42 386.88,-219.12"/>
<polygon fill="none" stroke="#63b8ff" points="386.92,-219.05 386.21,-211.87 392.56,-208.46 393.27,-215.64 386.92,-219.05"/>
</a>
</g>
<text xml:space="preserve" text-anchor="start" x="386.5" y="-271.25" font-family="Helvetica,sans-Serif" font-size="10.00" fill="grey">&#45;rb</text>
</g>
<!-- Node6 -->
<g id="Node000006" class="node">
<title>Node6</title>
<g id="a_Node000006"><a xlink:title=" ">
<polygon fill="white" stroke="none" points="482.12,-406 389.38,-406 389.38,-354 482.12,-354 482.12,-406"/>
<text xml:space="preserve" text-anchor="start" x="393.38" y="-392.25" font-family="Helvetica,sans-Serif" font-size="10.00">UnityEvent&lt; bool &gt;</text>
<text xml:space="preserve" text-anchor="start" x="434.25" y="-376.25" font-family="Helvetica,sans-Serif" font-size="10.00"> </text>
<text xml:space="preserve" text-anchor="start" x="434.25" y="-360.25" font-family="Helvetica,sans-Serif" font-size="10.00"> </text>
<polygon fill="#666666" stroke="#666666" points="389.38,-388 389.38,-388 482.12,-388 482.12,-388 389.38,-388"/>
<polygon fill="#666666" stroke="#666666" points="389.38,-372 389.38,-372 482.12,-372 482.12,-372 389.38,-372"/>
<polygon fill="none" stroke="#666666" points="389.38,-354 389.38,-406 482.12,-406 482.12,-354 389.38,-354"/>
</a>
</g>
</g>
<!-- Node6&#45;&gt;Node1 -->
<g id="edge15_Node000001_Node000006" class="edge">
<title>Node6&#45;&gt;Node1</title>
<g id="a_edge15_Node000001_Node000006"><a xlink:title=" ">
<path fill="none" stroke="#63b8ff" d="M422.37,-354.26C418.09,-345.03 413.9,-334.3 411.75,-324 402.85,-281.36 402.53,-268.57 411.75,-226 412.15,-224.13 412.59,-222.26 413.06,-220.38"/>
<polygon fill="none" stroke="#63b8ff" points="413.05,-220.4 410.81,-213.54 416.28,-208.84 418.52,-215.69 413.05,-220.4"/>
</a>
</g>
<text xml:space="preserve" text-anchor="start" x="414.75" y="-271.25" font-family="Helvetica,sans-Serif" font-size="10.00" fill="grey">+isMovingChanged</text>
</g>
<!-- Node7 -->
<g id="Node000007" class="node">
<title>Node7</title>
<g id="a_Node000007"><a xlink:title=" ">
<polygon fill="white" stroke="none" points="537.12,-406 510.38,-406 510.38,-354 537.12,-354 537.12,-406"/>
<text xml:space="preserve" text-anchor="start" x="514.38" y="-392.25" font-family="Helvetica,sans-Serif" font-size="10.00">float</text>
<text xml:space="preserve" text-anchor="start" x="522.25" y="-376.25" font-family="Helvetica,sans-Serif" font-size="10.00"> </text>
<text xml:space="preserve" text-anchor="start" x="522.25" y="-360.25" font-family="Helvetica,sans-Serif" font-size="10.00"> </text>
<polygon fill="#666666" stroke="#666666" points="510.38,-388 510.38,-388 537.12,-388 537.12,-388 510.38,-388"/>
<polygon fill="#666666" stroke="#666666" points="510.38,-372 510.38,-372 537.12,-372 537.12,-372 510.38,-372"/>
<polygon fill="none" stroke="#666666" points="510.38,-354 510.38,-406 537.12,-406 537.12,-354 510.38,-354"/>
</a>
</g>
</g>
<!-- Node7&#45;&gt;Node1 -->
<g id="edge16_Node000001_Node000007" class="edge">
<title>Node7&#45;&gt;Node1</title>
<g id="a_edge16_Node000001_Node000007"><a xlink:title=" ">
<path fill="none" stroke="#63b8ff" d="M521.25,-354.17C517.95,-323.74 511.39,-270.73 501.75,-226 501.35,-224.13 500.93,-222.25 500.5,-220.35"/>
<polygon fill="none" stroke="#63b8ff" points="500.49,-220.29 495.21,-215.37 497.72,-208.61 503,-213.53 500.49,-220.29"/>
</a>
</g>
<text xml:space="preserve" text-anchor="start" x="520.25" y="-311.25" font-family="Helvetica,sans-Serif" font-size="10.00" fill="grey">&#45;applyDragMin</text>
<text xml:space="preserve" text-anchor="start" x="520.25" y="-295.25" font-family="Helvetica,sans-Serif" font-size="10.00" fill="grey">&#45;applyTurnMin</text>
<text xml:space="preserve" text-anchor="start" x="520.25" y="-279.25" font-family="Helvetica,sans-Serif" font-size="10.00" fill="grey">&#45;drag</text>
<text xml:space="preserve" text-anchor="start" x="520.25" y="-263.25" font-family="Helvetica,sans-Serif" font-size="10.00" fill="grey">&#45;speed</text>
<text xml:space="preserve" text-anchor="start" x="520.25" y="-247.25" font-family="Helvetica,sans-Serif" font-size="10.00" fill="grey">&#45;turningStrength</text>
<text xml:space="preserve" text-anchor="start" x="520.25" y="-231.25" font-family="Helvetica,sans-Serif" font-size="10.00" fill="grey">&#45;velocityLimit</text>
</g>
<!-- Node8 -->
<g id="Node000008" class="node">
<title>Node8</title>
<g id="a_Node000008"><a xlink:title=" ">
<polygon fill="white" stroke="none" points="663.25,-406 580.25,-406 580.25,-354 663.25,-354 663.25,-406"/>
<text xml:space="preserve" text-anchor="start" x="584.25" y="-392.25" font-family="Helvetica,sans-Serif" font-size="10.00">InputActionAsset</text>
<text xml:space="preserve" text-anchor="start" x="620.25" y="-376.25" font-family="Helvetica,sans-Serif" font-size="10.00"> </text>
<text xml:space="preserve" text-anchor="start" x="620.25" y="-360.25" font-family="Helvetica,sans-Serif" font-size="10.00"> </text>
<polygon fill="#666666" stroke="#666666" points="580.25,-388 580.25,-388 663.25,-388 663.25,-388 580.25,-388"/>
<polygon fill="#666666" stroke="#666666" points="580.25,-372 580.25,-372 663.25,-372 663.25,-372 580.25,-372"/>
<polygon fill="none" stroke="#666666" points="580.25,-354 580.25,-406 663.25,-406 663.25,-354 580.25,-354"/>
</a>
</g>
</g>
<!-- Node8&#45;&gt;Node1 -->
<g id="edge17_Node000001_Node000008" class="edge">
<title>Node8&#45;&gt;Node1</title>
<g id="a_edge17_Node000001_Node000008"><a xlink:title=" ">
<path fill="none" stroke="#63b8ff" d="M622.5,-354.12C622.42,-322.49 618.73,-267.05 596.75,-226 586.9,-207.6 573.16,-190.46 558.28,-175.21"/>
<polygon fill="none" stroke="#63b8ff" points="558.6,-175.52 551.52,-174.15 550.06,-167.09 557.14,-168.46 558.6,-175.52"/>
</a>
</g>
<text xml:space="preserve" text-anchor="start" x="624.16" y="-271.25" font-family="Helvetica,sans-Serif" font-size="10.00" fill="grey">&#45;inputActionAsset</text>
</g>
<!-- Node9 -->
<g id="Node000009" class="node">
<title>Node9</title>
<g id="a_Node000009"><a xlink:title=" ">
<polygon fill="white" stroke="none" points="756.5,-406 699,-406 699,-354 756.5,-354 756.5,-406"/>
<text xml:space="preserve" text-anchor="start" x="703" y="-392.25" font-family="Helvetica,sans-Serif" font-size="10.00">InputAction</text>
<text xml:space="preserve" text-anchor="start" x="726.25" y="-376.25" font-family="Helvetica,sans-Serif" font-size="10.00"> </text>
<text xml:space="preserve" text-anchor="start" x="726.25" y="-360.25" font-family="Helvetica,sans-Serif" font-size="10.00"> </text>
<polygon fill="#666666" stroke="#666666" points="699,-388 699,-388 756.5,-388 756.5,-388 699,-388"/>
<polygon fill="#666666" stroke="#666666" points="699,-372 699,-372 756.5,-372 756.5,-372 699,-372"/>
<polygon fill="none" stroke="#666666" points="699,-354 699,-406 756.5,-406 756.5,-354 699,-354"/>
</a>
</g>
</g>
<!-- Node9&#45;&gt;Node1 -->
<g id="edge18_Node000001_Node000009" class="edge">
<title>Node9&#45;&gt;Node1</title>
<g id="a_edge18_Node000001_Node000009"><a xlink:title=" ">
<path fill="none" stroke="#63b8ff" d="M726.92,-354.26C725.21,-316.32 720.14,-246.06 705.75,-226 671.36,-178.08 612.38,-147.94 561.62,-129.73"/>
<polygon fill="none" stroke="#63b8ff" points="561.78,-129.78 554.8,-131.61 550.44,-125.87 557.41,-124.04 561.78,-129.78"/>
</a>
</g>
<text xml:space="preserve" text-anchor="start" x="727.93" y="-271.25" font-family="Helvetica,sans-Serif" font-size="10.00" fill="grey">&#45;moveAction</text>
</g>
<!-- Node10 -->
<g id="Node000010" class="node">
<title>Node10</title>
<g id="a_Node000010"><a xlink:title=" ">
<polygon fill="white" stroke="none" points="832.25,-406 791.25,-406 791.25,-354 832.25,-354 832.25,-406"/>
<text xml:space="preserve" text-anchor="start" x="795.25" y="-392.25" font-family="Helvetica,sans-Serif" font-size="10.00">Vector2</text>
<text xml:space="preserve" text-anchor="start" x="810.25" y="-376.25" font-family="Helvetica,sans-Serif" font-size="10.00"> </text>
<text xml:space="preserve" text-anchor="start" x="810.25" y="-360.25" font-family="Helvetica,sans-Serif" font-size="10.00"> </text>
<polygon fill="#666666" stroke="#666666" points="791.25,-388 791.25,-388 832.25,-388 832.25,-388 791.25,-388"/>
<polygon fill="#666666" stroke="#666666" points="791.25,-372 791.25,-372 832.25,-372 832.25,-372 791.25,-372"/>
<polygon fill="none" stroke="#666666" points="791.25,-354 791.25,-406 832.25,-406 832.25,-354 791.25,-354"/>
</a>
</g>
</g>
<!-- Node10&#45;&gt;Node1 -->
<g id="edge19_Node000001_Node000010" class="edge">
<title>Node10&#45;&gt;Node1</title>
<g id="a_edge19_Node000001_Node000010"><a xlink:title=" ">
<path fill="none" stroke="#63b8ff" d="M811.18,-354.06C809.82,-315.86 805.23,-245.23 789.75,-226 734.39,-157.2 635.63,-127.51 561.84,-114.71"/>
<polygon fill="none" stroke="#63b8ff" points="562.03,-114.74 555.46,-117.71 550.18,-112.8 556.75,-109.82 562.03,-114.74"/>
</a>
</g>
<text xml:space="preserve" text-anchor="start" x="812.45" y="-271.25" font-family="Helvetica,sans-Serif" font-size="10.00" fill="grey">&#45;inputDirection</text>
</g>
<!-- Node11 -->
<g id="Node000011" class="node">
<title>Node11</title>
<g id="a_Node000011"><a xlink:title=" ">
<polygon fill="white" stroke="none" points="916.75,-406 890.75,-406 890.75,-354 916.75,-354 916.75,-406"/>
<text xml:space="preserve" text-anchor="start" x="894.75" y="-392.25" font-family="Helvetica,sans-Serif" font-size="10.00">bool</text>
<text xml:space="preserve" text-anchor="start" x="902.25" y="-376.25" font-family="Helvetica,sans-Serif" font-size="10.00"> </text>
<text xml:space="preserve" text-anchor="start" x="902.25" y="-360.25" font-family="Helvetica,sans-Serif" font-size="10.00"> </text>
<polygon fill="#666666" stroke="#666666" points="890.75,-388 890.75,-388 916.75,-388 916.75,-388 890.75,-388"/>
<polygon fill="#666666" stroke="#666666" points="890.75,-372 890.75,-372 916.75,-372 916.75,-372 890.75,-372"/>
<polygon fill="none" stroke="#666666" points="890.75,-354 890.75,-406 916.75,-406 916.75,-354 890.75,-354"/>
</a>
</g>
</g>
<!-- Node11&#45;&gt;Node1 -->
<g id="edge20_Node000001_Node000011" class="edge">
<title>Node11&#45;&gt;Node1</title>
<g id="a_edge20_Node000001_Node000011"><a xlink:title=" ">
<path fill="none" stroke="#63b8ff" d="M907.69,-354.25C911.49,-320.94 912.8,-261.77 881.75,-226 839.98,-177.89 671.09,-140.38 562.06,-120.56"/>
<polygon fill="none" stroke="#63b8ff" points="562.1,-120.57 555.48,-123.45 550.28,-118.45 556.9,-115.57 562.1,-120.57"/>
</a>
</g>
<text xml:space="preserve" text-anchor="start" x="912.64" y="-271.25" font-family="Helvetica,sans-Serif" font-size="10.00" fill="grey">&#45;isWalking</text>
</g>
</g>
</svg>
