<?xml version="1.0" encoding="UTF-8" standalone="no"?>
<!DOCTYPE svg PUBLIC "-//W3C//DTD SVG 1.1//EN"
 "http://www.w3.org/Graphics/SVG/1.1/DTD/svg11.dtd">
<!-- Generated by graphviz version 14.1.5 (20260411.2331)
 -->
<!-- Title: WeaponSpawner Pages: 1 -->
<svg width="533pt" height="310pt"
 viewBox="0.00 0.00 533.00 310.00" xmlns="http://www.w3.org/2000/svg" xmlns:xlink="http://www.w3.org/1999/xlink">
<g id="graph0" class="graph" transform="scale(1 1) rotate(0) translate(4 306)">
<title>WeaponSpawner</title>
<!-- Node1 -->
<g id="Node000001" class="node">
<title>Node1</title>
<g id="a_Node000001"><a xlink:title=" ">
<polygon fill="#999999" stroke="none" points="333.25,-184 180.25,-184 180.25,0 333.25,0 333.25,-184"/>
<text xml:space="preserve" text-anchor="start" x="220" y="-170.25" font-family="Helvetica,sans-Serif" font-size="10.00">WeaponSpawner</text>
<text xml:space="preserve" text-anchor="start" x="255.25" y="-154.25" font-family="Helvetica,sans-Serif" font-size="10.00"> </text>
<text xml:space="preserve" text-anchor="start" x="184.25" y="-138.25" font-family="Helvetica,sans-Serif" font-size="10.00">+</text>
<text xml:space="preserve" text-anchor="start" x="194.25" y="-138.25" font-family="Helvetica,sans-Serif" font-size="10.00">void Spawn()</text>
<text xml:space="preserve" text-anchor="start" x="184.25" y="-122.25" font-family="Helvetica,sans-Serif" font-size="10.00">+</text>
<text xml:space="preserve" text-anchor="start" x="194.25" y="-122.25" font-family="Helvetica,sans-Serif" font-size="10.00">WeaponInstance GetNearest</text>
<text xml:space="preserve" text-anchor="start" x="194.25" y="-110.25" font-family="Helvetica,sans-Serif" font-size="10.00">(Vector2 posToCheck)</text>
<text xml:space="preserve" text-anchor="start" x="184.25" y="-94.25" font-family="Helvetica,sans-Serif" font-size="10.00">+</text>
<text xml:space="preserve" text-anchor="start" x="194.25" y="-94.25" font-family="Helvetica,sans-Serif" font-size="10.00">Tuple&lt; bool, Vector3</text>
<text xml:space="preserve" text-anchor="start" x="194.25" y="-82.25" font-family="Helvetica,sans-Serif" font-size="10.00"> &gt; AlignPositionToTilemap</text>
<text xml:space="preserve" text-anchor="start" x="194.25" y="-70.25" font-family="Helvetica,sans-Serif" font-size="10.00">(Vector3 worldPosition)</text>
<text xml:space="preserve" text-anchor="start" x="185.75" y="-54.25" font-family="Helvetica,sans-Serif" font-size="10.00">&#45;</text>
<text xml:space="preserve" text-anchor="start" x="194.25" y="-54.25" font-family="Helvetica,sans-Serif" font-size="10.00">void OnValidate()</text>
<text xml:space="preserve" text-anchor="start" x="185.75" y="-38.25" font-family="Helvetica,sans-Serif" font-size="10.00">&#45;</text>
<text xml:space="preserve" text-anchor="start" x="194.25" y="-38.25" font-family="Helvetica,sans-Serif" font-size="10.00">void Start()</text>
<text xml:space="preserve" text-anchor="start" x="185.75" y="-22.25" font-family="Helvetica,sans-Serif" font-size="10.00">&#45;</text>
<text xml:space="preserve" text-anchor="start" x="194.25" y="-22.25" font-family="Helvetica,sans-Serif" font-size="10.00">void CleanWeaponInstances()</text>
<text xml:space="preserve" text-anchor="start" x="185.75" y="-6.25" font-family="Helvetica,sans-Serif" font-size="10.00">&#45;</text>
<text xml:space="preserve" text-anchor="start" x="194.25" y="-6.25" font-family="Helvetica,sans-Serif" font-size="10.00">void OnDrawGizmosSelected()</text>
<polygon fill="#666666" stroke="#666666" points="180.25,-166 180.25,-166 333.25,-166 333.25,-166 180.25,-166"/>
<polygon fill="#666666" stroke="#666666" points="180.25,-150 180.25,-150 333.25,-150 333.25,-150 180.25,-150"/>
<polygon fill="none" stroke="#666666" points="180.25,0 180.25,-184 333.25,-184 333.25,0 180.25,0"/>
</a>
</g>
</g>
<!-- Node2 -->
<g id="Node000002" class="node">
<title>Node2</title>
<g id="a_Node000002"><a xlink:title=" ">
<polygon fill="white" stroke="none" points="75.5,-296 0,-296 0,-244 75.5,-244 75.5,-296"/>
<text xml:space="preserve" text-anchor="start" x="4" y="-282.25" font-family="Helvetica,sans-Serif" font-size="10.00">MonoBehaviour</text>
<text xml:space="preserve" text-anchor="start" x="36.25" y="-266.25" font-family="Helvetica,sans-Serif" font-size="10.00"> </text>
<text xml:space="preserve" text-anchor="start" x="36.25" y="-250.25" font-family="Helvetica,sans-Serif" font-size="10.00"> </text>
<polygon fill="#666666" stroke="#666666" points="0,-278 0,-278 75.5,-278 75.5,-278 0,-278"/>
<polygon fill="#666666" stroke="#666666" points="0,-262 0,-262 75.5,-262 75.5,-262 0,-262"/>
<polygon fill="none" stroke="#666666" points="0,-244 0,-296 75.5,-296 75.5,-244 0,-244"/>
</a>
</g>
</g>
<!-- Node2&#45;&gt;Node1 -->
<g id="edge7_Node000001_Node000002" class="edge">
<title>Node2&#45;&gt;Node1</title>
<g id="a_edge7_Node000001_Node000002"><a xlink:title=" ">
<path fill="none" stroke="#63b8ff" d="M77.59,-236.99C106.31,-213.9 145.98,-182.02 180.69,-154.13"/>
<polygon fill="none" stroke="#63b8ff" points="75.44,-234.22 69.84,-243.21 79.83,-239.67 75.44,-234.22"/>
</a>
</g>
</g>
<!-- Node3 -->
<g id="Node000003" class="node">
<title>Node3</title>
<g id="a_Node000003"><a xlink:title=" ">
<polygon fill="white" stroke="none" points="136,-296 93.5,-296 93.5,-244 136,-244 136,-296"/>
<text xml:space="preserve" text-anchor="start" x="97.5" y="-282.25" font-family="Helvetica,sans-Serif" font-size="10.00">Tilemap</text>
<text xml:space="preserve" text-anchor="start" x="113.25" y="-266.25" font-family="Helvetica,sans-Serif" font-size="10.00"> </text>
<text xml:space="preserve" text-anchor="start" x="113.25" y="-250.25" font-family="Helvetica,sans-Serif" font-size="10.00"> </text>
<polygon fill="#666666" stroke="#666666" points="93.5,-278 93.5,-278 136,-278 136,-278 93.5,-278"/>
<polygon fill="#666666" stroke="#666666" points="93.5,-262 93.5,-262 136,-262 136,-262 93.5,-262"/>
<polygon fill="none" stroke="#666666" points="93.5,-244 93.5,-296 136,-296 136,-244 93.5,-244"/>
</a>
</g>
</g>
<!-- Node3&#45;&gt;Node1 -->
<g id="edge8_Node000001_Node000003" class="edge">
<title>Node3&#45;&gt;Node1</title>
<g id="a_edge8_Node000001_Node000003"><a xlink:title=" ">
<path fill="none" stroke="#63b8ff" d="M125.36,-244.09C131.48,-231.01 139.81,-215.03 149.25,-202 156.14,-192.5 163.85,-183.03 171.89,-173.86"/>
<polygon fill="none" stroke="#63b8ff" points="171.74,-174.03 172.78,-166.89 179.77,-165.11 178.73,-172.24 171.74,-174.03"/>
</a>
</g>
<text xml:space="preserve" text-anchor="start" x="152.25" y="-207.25" font-family="Helvetica,sans-Serif" font-size="10.00" fill="grey">+tilemap</text>
</g>
<!-- Node4 -->
<g id="Node000004" class="node">
<title>Node4</title>
<g id="a_Node000004"><a xlink:title=" ">
<polygon fill="white" stroke="none" points="231.25,-296 154.25,-296 154.25,-244 231.25,-244 231.25,-296"/>
<text xml:space="preserve" text-anchor="start" x="158.25" y="-282.25" font-family="Helvetica,sans-Serif" font-size="10.00">List&lt; Weapon &gt;</text>
<text xml:space="preserve" text-anchor="start" x="191.25" y="-266.25" font-family="Helvetica,sans-Serif" font-size="10.00"> </text>
<text xml:space="preserve" text-anchor="start" x="191.25" y="-250.25" font-family="Helvetica,sans-Serif" font-size="10.00"> </text>
<polygon fill="#666666" stroke="#666666" points="154.25,-278 154.25,-278 231.25,-278 231.25,-278 154.25,-278"/>
<polygon fill="#666666" stroke="#666666" points="154.25,-262 154.25,-262 231.25,-262 231.25,-262 154.25,-262"/>
<polygon fill="none" stroke="#666666" points="154.25,-244 154.25,-296 231.25,-296 231.25,-244 154.25,-244"/>
</a>
</g>
</g>
<!-- Node4&#45;&gt;Node1 -->
<g id="edge9_Node000001_Node000004" class="edge">
<title>Node4&#45;&gt;Node1</title>
<g id="a_edge9_Node000001_Node000004"><a xlink:title=" ">
<path fill="none" stroke="#63b8ff" d="M193.62,-244.06C194.59,-231.26 196.61,-215.56 200.75,-202 201.35,-200.03 201.99,-198.05 202.66,-196.07"/>
<polygon fill="none" stroke="#63b8ff" points="202.68,-196.01 200.99,-189 206.81,-184.74 208.5,-191.75 202.68,-196.01"/>
</a>
</g>
<text xml:space="preserve" text-anchor="start" x="203.75" y="-207.25" font-family="Helvetica,sans-Serif" font-size="10.00" fill="grey">+spawnableWeapons</text>
</g>
<!-- Node5 -->
<g id="Node000005" class="node">
<title>Node5</title>
<g id="a_Node000005"><a xlink:title=" ">
<polygon fill="white" stroke="none" points="394,-302 249.5,-302 249.5,-238 394,-238 394,-302"/>
<text xml:space="preserve" text-anchor="start" x="253.5" y="-288.25" font-family="Helvetica,sans-Serif" font-size="10.00">List&lt; WeaponSpawner.Weapon</text>
<text xml:space="preserve" text-anchor="start" x="298.5" y="-276.25" font-family="Helvetica,sans-Serif" font-size="10.00">Instance &gt;</text>
<text xml:space="preserve" text-anchor="start" x="320.25" y="-260.25" font-family="Helvetica,sans-Serif" font-size="10.00"> </text>
<text xml:space="preserve" text-anchor="start" x="320.25" y="-244.25" font-family="Helvetica,sans-Serif" font-size="10.00"> </text>
<polygon fill="#666666" stroke="#666666" points="249.5,-272 249.5,-272 394,-272 394,-272 249.5,-272"/>
<polygon fill="#666666" stroke="#666666" points="249.5,-256 249.5,-256 394,-256 394,-256 249.5,-256"/>
<polygon fill="none" stroke="#666666" points="249.5,-238 249.5,-302 394,-302 394,-238 249.5,-238"/>
</a>
</g>
</g>
<!-- Node5&#45;&gt;Node1 -->
<g id="edge10_Node000001_Node000005" class="edge">
<title>Node5&#45;&gt;Node1</title>
<g id="a_edge10_Node000001_Node000005"><a xlink:title=" ">
<path fill="none" stroke="#63b8ff" d="M312.05,-238.18C308.35,-226.77 303.99,-213.75 299.75,-202 299.01,-199.96 298.26,-197.9 297.5,-195.83"/>
<polygon fill="none" stroke="#63b8ff" points="297.54,-195.94 291.7,-191.71 293.36,-184.69 299.2,-188.92 297.54,-195.94"/>
</a>
</g>
<text xml:space="preserve" text-anchor="start" x="308.5" y="-207.25" font-family="Helvetica,sans-Serif" font-size="10.00" fill="grey">+liveWeapons</text>
</g>
<!-- Node6 -->
<g id="Node000006" class="node">
<title>Node6</title>
<g id="a_Node000006"><a xlink:title=" ">
<polygon fill="white" stroke="none" points="453.25,-296 412.25,-296 412.25,-244 453.25,-244 453.25,-296"/>
<text xml:space="preserve" text-anchor="start" x="416.25" y="-282.25" font-family="Helvetica,sans-Serif" font-size="10.00">Bounds</text>
<text xml:space="preserve" text-anchor="start" x="431.25" y="-266.25" font-family="Helvetica,sans-Serif" font-size="10.00"> </text>
<text xml:space="preserve" text-anchor="start" x="431.25" y="-250.25" font-family="Helvetica,sans-Serif" font-size="10.00"> </text>
<polygon fill="#666666" stroke="#666666" points="412.25,-278 412.25,-278 453.25,-278 453.25,-278 412.25,-278"/>
<polygon fill="#666666" stroke="#666666" points="412.25,-262 412.25,-262 453.25,-262 453.25,-262 412.25,-262"/>
<polygon fill="none" stroke="#666666" points="412.25,-244 412.25,-296 453.25,-296 453.25,-244 412.25,-244"/>
</a>
</g>
</g>
<!-- Node6&#45;&gt;Node1 -->
<g id="edge11_Node000001_Node000006" class="edge">
<title>Node6&#45;&gt;Node1</title>
<g id="a_edge11_Node000001_Node000006"><a xlink:title=" ">
<path fill="none" stroke="#63b8ff" d="M413.31,-244.12C402.87,-231.19 389.56,-215.34 376.75,-202 365.99,-190.78 354.28,-179.33 342.54,-168.27"/>
<polygon fill="none" stroke="#63b8ff" points="342.57,-168.3 335.45,-167.13 333.8,-160.11 340.91,-161.28 342.57,-168.3"/>
</a>
</g>
<text xml:space="preserve" text-anchor="start" x="395.89" y="-207.25" font-family="Helvetica,sans-Serif" font-size="10.00" fill="grey">&#45;bounds</text>
</g>
<!-- Node7 -->
<g id="Node000007" class="node">
<title>Node7</title>
<g id="a_Node000007"><a xlink:title=" ">
<polygon fill="white" stroke="none" points="498,-296 479.5,-296 479.5,-244 498,-244 498,-296"/>
<text xml:space="preserve" text-anchor="start" x="483.5" y="-282.25" font-family="Helvetica,sans-Serif" font-size="10.00">int</text>
<text xml:space="preserve" text-anchor="start" x="487.25" y="-266.25" font-family="Helvetica,sans-Serif" font-size="10.00"> </text>
<text xml:space="preserve" text-anchor="start" x="487.25" y="-250.25" font-family="Helvetica,sans-Serif" font-size="10.00"> </text>
<polygon fill="#666666" stroke="#666666" points="479.5,-278 479.5,-278 498,-278 498,-278 479.5,-278"/>
<polygon fill="#666666" stroke="#666666" points="479.5,-262 479.5,-262 498,-262 498,-262 479.5,-262"/>
<polygon fill="none" stroke="#666666" points="479.5,-244 479.5,-296 498,-296 498,-244 479.5,-244"/>
</a>
</g>
</g>
<!-- Node7&#45;&gt;Node1 -->
<g id="edge12_Node000001_Node000007" class="edge">
<title>Node7&#45;&gt;Node1</title>
<g id="a_edge12_Node000001_Node000007"><a xlink:title=" ">
<path fill="none" stroke="#63b8ff" d="M479.61,-253.84C470.34,-239.33 454.94,-217.42 437.75,-202 409.9,-177.02 375.52,-154.65 344.23,-136.77"/>
<polygon fill="none" stroke="#63b8ff" points="344.11,-136.7 336.92,-137.25 333.64,-130.83 340.83,-130.28 344.11,-136.7"/>
</a>
</g>
<text xml:space="preserve" text-anchor="start" x="456.75" y="-207.25" font-family="Helvetica,sans-Serif" font-size="10.00" fill="grey">&#45;spawnAmount</text>
</g>
</g>
</svg>
