<?xml version="1.0" encoding="UTF-8" standalone="no"?>
<!DOCTYPE svg PUBLIC "-//W3C//DTD SVG 1.1//EN"
 "http://www.w3.org/Graphics/SVG/1.1/DTD/svg11.dtd">
<!-- Generated by graphviz version 14.1.5 (20260411.2331)
 -->
<!-- Title: Generation.Area Pages: 1 -->
<svg width="782pt" height="544pt"
 viewBox="0.00 0.00 782.00 544.00" xmlns="http://www.w3.org/2000/svg" xmlns:xlink="http://www.w3.org/1999/xlink">
<g id="graph0" class="graph" transform="scale(1 1) rotate(0) translate(4 540)">
<title>Generation.Area</title>
<!-- Node1 -->
<g id="Node000001" class="node">
<title>Node1</title>
<g id="a_Node000001"><a xlink:title="Holds references and default data for an entire area.">
<polygon fill="#999999" stroke="none" points="342.5,-116 189.5,-116 189.5,0 342.5,0 342.5,-116"/>
<text xml:space="preserve" text-anchor="start" x="230.75" y="-102.25" font-family="Helvetica,sans-Serif" font-size="10.00">Generation.Area</text>
<text xml:space="preserve" text-anchor="start" x="193.5" y="-86.25" font-family="Helvetica,sans-Serif" font-size="10.00">+</text>
<text xml:space="preserve" text-anchor="start" x="203.5" y="-86.25" font-family="Helvetica,sans-Serif" font-size="10.00">int WalkDirectionRepetition</text>
<text xml:space="preserve" text-anchor="start" x="203.5" y="-74.25" font-family="Helvetica,sans-Serif" font-size="10.00">Allowance</text>
<text xml:space="preserve" text-anchor="start" x="193.5" y="-58.25" font-family="Helvetica,sans-Serif" font-size="10.00">+</text>
<text xml:space="preserve" text-anchor="start" x="203.5" y="-58.25" font-family="Helvetica,sans-Serif" font-size="10.00">AreaRuntime GetAreaGenData</text>
<text xml:space="preserve" text-anchor="start" x="203.5" y="-46.25" font-family="Helvetica,sans-Serif" font-size="10.00">(string seed)</text>
<text xml:space="preserve" text-anchor="start" x="193.5" y="-30.25" font-family="Helvetica,sans-Serif" font-size="10.00">+</text>
<text xml:space="preserve" text-anchor="start" x="203.5" y="-30.25" font-family="Helvetica,sans-Serif" font-size="10.00">void CreatUI(Transform</text>
<text xml:space="preserve" text-anchor="start" x="203.5" y="-18.25" font-family="Helvetica,sans-Serif" font-size="10.00"> parent, GameObject sliderAnd</text>
<text xml:space="preserve" text-anchor="start" x="203.5" y="-6.25" font-family="Helvetica,sans-Serif" font-size="10.00">TextPrefab)</text>
<polygon fill="#666666" stroke="#666666" points="189.5,-98 189.5,-98 342.5,-98 342.5,-98 189.5,-98"/>
<polygon fill="#666666" stroke="#666666" points="189.5,-70 189.5,-70 201.5,-70 201.5,-70 189.5,-70"/>
<polygon fill="#666666" stroke="#666666" points="201.5,-70 201.5,-70 342.5,-70 342.5,-70 201.5,-70"/>
<polygon fill="none" stroke="#666666" points="189.5,0 189.5,-116 342.5,-116 342.5,0 189.5,0"/>
</a>
</g>
</g>
<!-- Node2 -->
<g id="Node000002" class="node">
<title>Node2</title>
<g id="a_Node000002"><a xlink:href="$class_scriptable_object.html" xlink:title=" ">
<polygon fill="white" stroke="none" points="80,-350 0,-350 0,-298 80,-298 80,-350"/>
<text xml:space="preserve" text-anchor="start" x="4" y="-336.25" font-family="Helvetica,sans-Serif" font-size="10.00">ScriptableObject</text>
<text xml:space="preserve" text-anchor="start" x="38.5" y="-320.25" font-family="Helvetica,sans-Serif" font-size="10.00"> </text>
<text xml:space="preserve" text-anchor="start" x="38.5" y="-304.25" font-family="Helvetica,sans-Serif" font-size="10.00"> </text>
<polygon fill="#666666" stroke="#666666" points="0,-332 0,-332 80,-332 80,-332 0,-332"/>
<polygon fill="#666666" stroke="#666666" points="0,-316 0,-316 80,-316 80,-316 0,-316"/>
<polygon fill="none" stroke="#666666" points="0,-298 0,-350 80,-350 80,-298 0,-298"/>
</a>
</g>
</g>
<!-- Node2&#45;&gt;Node1 -->
<g id="edge11_Node000001_Node000002" class="edge">
<title>Node2&#45;&gt;Node1</title>
<g id="a_edge11_Node000001_Node000002"><a xlink:title=" ">
<path fill="none" stroke="#63b8ff" d="M43.21,-286.9C48.67,-245.36 63.27,-177.33 102,-134 125.06,-108.21 158.76,-90.71 189.63,-79.15"/>
<polygon fill="none" stroke="#63b8ff" points="39.76,-286.28 42.05,-296.62 46.71,-287.1 39.76,-286.28"/>
</a>
</g>
</g>
<!-- Node3 -->
<g id="Node000003" class="node">
<title>Node3</title>
<g id="a_Node000003"><a xlink:title=" ">
<polygon fill="white" stroke="none" points="147.62,-350 98.38,-350 98.38,-298 147.62,-298 147.62,-350"/>
<text xml:space="preserve" text-anchor="start" x="102.38" y="-336.25" font-family="Helvetica,sans-Serif" font-size="10.00">AreaType</text>
<text xml:space="preserve" text-anchor="start" x="121.5" y="-320.25" font-family="Helvetica,sans-Serif" font-size="10.00"> </text>
<text xml:space="preserve" text-anchor="start" x="121.5" y="-304.25" font-family="Helvetica,sans-Serif" font-size="10.00"> </text>
<polygon fill="#666666" stroke="#666666" points="98.38,-332 98.38,-332 147.62,-332 147.62,-332 98.38,-332"/>
<polygon fill="#666666" stroke="#666666" points="98.38,-316 98.38,-316 147.62,-316 147.62,-316 98.38,-316"/>
<polygon fill="none" stroke="#666666" points="98.38,-298 98.38,-350 147.62,-350 147.62,-298 98.38,-298"/>
</a>
</g>
</g>
<!-- Node3&#45;&gt;Node1 -->
<g id="edge12_Node000001_Node000003" class="edge">
<title>Node3&#45;&gt;Node1</title>
<g id="a_edge12_Node000001_Node000003"><a xlink:title=" ">
<path fill="none" stroke="#63b8ff" d="M116.01,-298.17C106.75,-259.82 94.98,-185.27 126.25,-134 138.35,-114.17 157.65,-99.26 178.1,-88.19"/>
<polygon fill="none" stroke="#63b8ff" points="178.02,-88.23 181.57,-81.95 188.73,-82.83 185.17,-89.1 178.02,-88.23"/>
</a>
</g>
<text xml:space="preserve" text-anchor="start" x="129.25" y="-171.25" font-family="Helvetica,sans-Serif" font-size="10.00" fill="grey">+areaType</text>
</g>
<!-- Node4 -->
<g id="Node000004" class="node">
<title>Node4</title>
<g id="a_Node000004"><a xlink:title=" ">
<polygon fill="white" stroke="none" points="207.25,-350 188.75,-350 188.75,-298 207.25,-298 207.25,-350"/>
<text xml:space="preserve" text-anchor="start" x="192.75" y="-336.25" font-family="Helvetica,sans-Serif" font-size="10.00">int</text>
<text xml:space="preserve" text-anchor="start" x="196.5" y="-320.25" font-family="Helvetica,sans-Serif" font-size="10.00"> </text>
<text xml:space="preserve" text-anchor="start" x="196.5" y="-304.25" font-family="Helvetica,sans-Serif" font-size="10.00"> </text>
<polygon fill="#666666" stroke="#666666" points="188.75,-332 188.75,-332 207.25,-332 207.25,-332 188.75,-332"/>
<polygon fill="#666666" stroke="#666666" points="188.75,-316 188.75,-316 207.25,-316 207.25,-316 188.75,-316"/>
<polygon fill="none" stroke="#666666" points="188.75,-298 188.75,-350 207.25,-350 207.25,-298 188.75,-298"/>
</a>
</g>
</g>
<!-- Node4&#45;&gt;Node1 -->
<g id="edge13_Node000001_Node000004" class="edge">
<title>Node4&#45;&gt;Node1</title>
<g id="a_edge13_Node000001_Node000004"><a xlink:title=" ">
<path fill="none" stroke="#63b8ff" d="M191.85,-298.06C183.93,-260.83 173.62,-189.22 195.5,-134 196.44,-131.63 197.49,-129.3 198.64,-127"/>
<polygon fill="none" stroke="#63b8ff" points="198.66,-126.96 198.22,-119.76 204.69,-116.58 205.13,-123.78 198.66,-126.96"/>
</a>
</g>
<text xml:space="preserve" text-anchor="start" x="198.5" y="-203.25" font-family="Helvetica,sans-Serif" font-size="10.00" fill="grey">+smallestEndRoomSize</text>
<text xml:space="preserve" text-anchor="start" x="198.5" y="-187.25" font-family="Helvetica,sans-Serif" font-size="10.00" fill="grey">&#45;maxSize</text>
<text xml:space="preserve" text-anchor="start" x="198.5" y="-171.25" font-family="Helvetica,sans-Serif" font-size="10.00" fill="grey">&#45;minSize</text>
<text xml:space="preserve" text-anchor="start" x="198.5" y="-155.25" font-family="Helvetica,sans-Serif" font-size="10.00" fill="grey">&#45;walkDirectionRepetition</text>
<text xml:space="preserve" text-anchor="start" x="198.5" y="-139.25" font-family="Helvetica,sans-Serif" font-size="10.00" fill="grey">  Allowance</text>
</g>
<!-- Node5 -->
<g id="Node000005" class="node">
<title>Node5</title>
<g id="a_Node000005"><a xlink:title=" ">
<polygon fill="white" stroke="none" points="380.75,-356 245.25,-356 245.25,-292 380.75,-292 380.75,-356"/>
<text xml:space="preserve" text-anchor="start" x="249.25" y="-342.25" font-family="Helvetica,sans-Serif" font-size="10.00">List&lt; Generation.TypedRoom</text>
<text xml:space="preserve" text-anchor="start" x="300.62" y="-330.25" font-family="Helvetica,sans-Serif" font-size="10.00">List &gt;</text>
<text xml:space="preserve" text-anchor="start" x="311.5" y="-314.25" font-family="Helvetica,sans-Serif" font-size="10.00"> </text>
<text xml:space="preserve" text-anchor="start" x="311.5" y="-298.25" font-family="Helvetica,sans-Serif" font-size="10.00"> </text>
<polygon fill="#666666" stroke="#666666" points="245.25,-326 245.25,-326 380.75,-326 380.75,-326 245.25,-326"/>
<polygon fill="#666666" stroke="#666666" points="245.25,-310 245.25,-310 380.75,-310 380.75,-310 245.25,-310"/>
<polygon fill="none" stroke="#666666" points="245.25,-292 245.25,-356 380.75,-356 380.75,-292 245.25,-292"/>
</a>
</g>
</g>
<!-- Node5&#45;&gt;Node1 -->
<g id="edge14_Node000001_Node000005" class="edge">
<title>Node5&#45;&gt;Node1</title>
<g id="a_edge14_Node000001_Node000005"><a xlink:title=" ">
<path fill="none" stroke="#63b8ff" d="M317.83,-292.17C322.66,-254.16 327.38,-187.96 312,-134 311.4,-131.88 310.71,-129.76 309.96,-127.65"/>
<polygon fill="none" stroke="#63b8ff" points="309.94,-127.59 303.95,-123.58 305.35,-116.51 311.34,-120.52 309.94,-127.59"/>
</a>
</g>
<text xml:space="preserve" text-anchor="start" x="325.47" y="-171.25" font-family="Helvetica,sans-Serif" font-size="10.00" fill="grey">&#45;roomTypes</text>
</g>
<!-- Node6 -->
<g id="Node000006" class="node">
<title>Node6</title>
<g id="a_Node000006"><a xlink:href="$class_generation_1_1_room_list.html" xlink:title=" ">
<polygon fill="white" stroke="none" points="557.5,-396 398.5,-396 398.5,-252 557.5,-252 557.5,-396"/>
<text xml:space="preserve" text-anchor="start" x="431.88" y="-382.25" font-family="Helvetica,sans-Serif" font-size="10.00">Generation.RoomList</text>
<text xml:space="preserve" text-anchor="start" x="402.5" y="-366.25" font-family="Helvetica,sans-Serif" font-size="10.00">+</text>
<text xml:space="preserve" text-anchor="start" x="412.5" y="-366.25" font-family="Helvetica,sans-Serif" font-size="10.00">List&lt; Room &gt; RoomData</text>
<text xml:space="preserve" text-anchor="start" x="402.5" y="-350.25" font-family="Helvetica,sans-Serif" font-size="10.00">+</text>
<text xml:space="preserve" text-anchor="start" x="412.5" y="-350.25" font-family="Helvetica,sans-Serif" font-size="10.00">RoomList(List&lt; Room</text>
<text xml:space="preserve" text-anchor="start" x="412.5" y="-338.25" font-family="Helvetica,sans-Serif" font-size="10.00"> &gt; givenData)</text>
<text xml:space="preserve" text-anchor="start" x="402.5" y="-322.25" font-family="Helvetica,sans-Serif" font-size="10.00">+</text>
<text xml:space="preserve" text-anchor="start" x="412.5" y="-322.25" font-family="Helvetica,sans-Serif" font-size="10.00">RoomList(RoomList</text>
<text xml:space="preserve" text-anchor="start" x="412.5" y="-310.25" font-family="Helvetica,sans-Serif" font-size="10.00"> givenData)</text>
<text xml:space="preserve" text-anchor="start" x="402.5" y="-294.25" font-family="Helvetica,sans-Serif" font-size="10.00">+</text>
<text xml:space="preserve" text-anchor="start" x="412.5" y="-294.25" font-family="Helvetica,sans-Serif" font-size="10.00">static ? Room TryGetRoom</text>
<text xml:space="preserve" text-anchor="start" x="412.5" y="-282.25" font-family="Helvetica,sans-Serif" font-size="10.00">(WorldGenRuntime genRuntime,</text>
<text xml:space="preserve" text-anchor="start" x="412.5" y="-270.25" font-family="Helvetica,sans-Serif" font-size="10.00"> List&lt; Room &gt; pool, Room[]</text>
<text xml:space="preserve" text-anchor="start" x="412.5" y="-258.25" font-family="Helvetica,sans-Serif" font-size="10.00"> lastRooms=null!)</text>
<polygon fill="#666666" stroke="#666666" points="398.5,-378 398.5,-378 557.5,-378 557.5,-378 398.5,-378"/>
<polygon fill="#666666" stroke="#666666" points="398.5,-362 398.5,-362 410.5,-362 410.5,-362 398.5,-362"/>
<polygon fill="#666666" stroke="#666666" points="410.5,-362 410.5,-362 557.5,-362 557.5,-362 410.5,-362"/>
<polygon fill="none" stroke="#666666" points="398.5,-252 398.5,-396 557.5,-396 557.5,-252 398.5,-252"/>
</a>
</g>
</g>
<!-- Node6&#45;&gt;Node1 -->
<g id="edge15_Node000001_Node000006" class="edge">
<title>Node6&#45;&gt;Node1</title>
<g id="a_edge15_Node000001_Node000006"><a xlink:title=" ">
<path fill="none" stroke="#63b8ff" d="M453.16,-252.43C437.28,-214.34 413.85,-168.24 383,-134 374.19,-124.22 363.82,-115.2 352.95,-107.06"/>
<polygon fill="none" stroke="#63b8ff" points="352.92,-107.04 345.71,-106.8 343.16,-100.06 350.36,-100.29 352.92,-107.04"/>
</a>
</g>
<text xml:space="preserve" text-anchor="start" x="439.44" y="-171.25" font-family="Helvetica,sans-Serif" font-size="10.00" fill="grey">&#45;endRooms</text>
</g>
<!-- Node7 -->
<g id="Node000007" class="node">
<title>Node7</title>
<g id="a_Node000007"><a xlink:title=" ">
<polygon fill="white" stroke="none" points="537.12,-536 418.88,-536 418.88,-484 537.12,-484 537.12,-536"/>
<text xml:space="preserve" text-anchor="start" x="422.88" y="-522.25" font-family="Helvetica,sans-Serif" font-size="10.00">List&lt; Generation.Room &gt;</text>
<text xml:space="preserve" text-anchor="start" x="476.5" y="-506.25" font-family="Helvetica,sans-Serif" font-size="10.00"> </text>
<text xml:space="preserve" text-anchor="start" x="476.5" y="-490.25" font-family="Helvetica,sans-Serif" font-size="10.00"> </text>
<polygon fill="#666666" stroke="#666666" points="418.88,-518 418.88,-518 537.12,-518 537.12,-518 418.88,-518"/>
<polygon fill="#666666" stroke="#666666" points="418.88,-502 418.88,-502 537.12,-502 537.12,-502 418.88,-502"/>
<polygon fill="none" stroke="#666666" points="418.88,-484 418.88,-536 537.12,-536 537.12,-484 418.88,-484"/>
</a>
</g>
</g>
<!-- Node7&#45;&gt;Node6 -->
<g id="edge16_Node000006_Node000007" class="edge">
<title>Node7&#45;&gt;Node6</title>
<g id="a_edge16_Node000006_Node000007"><a xlink:title=" ">
<path fill="none" stroke="#63b8ff" d="M478,-484.18C478,-464.62 478,-436.15 478,-408.68"/>
<polygon fill="none" stroke="#63b8ff" points="478,-408.64 474,-402.64 478,-396.64 482,-402.64 478,-408.64"/>
</a>
</g>
<text xml:space="preserve" text-anchor="start" x="481" y="-445.25" font-family="Helvetica,sans-Serif" font-size="10.00" fill="grey">&#45;roomData</text>
</g>
<!-- Node8 -->
<g id="Node000008" class="node">
<title>Node8</title>
<g id="a_Node000008"><a xlink:href="$class_slider_and_text_instance.html" xlink:title=" ">
<polygon fill="white" stroke="none" points="768.75,-414 575.25,-414 575.25,-234 768.75,-234 768.75,-414"/>
<text xml:space="preserve" text-anchor="start" x="622.88" y="-400.25" font-family="Helvetica,sans-Serif" font-size="10.00">SliderAndTextInstance</text>
<text xml:space="preserve" text-anchor="start" x="670.5" y="-384.25" font-family="Helvetica,sans-Serif" font-size="10.00"> </text>
<text xml:space="preserve" text-anchor="start" x="579.25" y="-368.25" font-family="Helvetica,sans-Serif" font-size="10.00">+</text>
<text xml:space="preserve" text-anchor="start" x="589.25" y="-368.25" font-family="Helvetica,sans-Serif" font-size="10.00">void Initialize(GameObject</text>
<text xml:space="preserve" text-anchor="start" x="589.25" y="-356.25" font-family="Helvetica,sans-Serif" font-size="10.00"> uiInstance)</text>
<text xml:space="preserve" text-anchor="start" x="579.25" y="-340.25" font-family="Helvetica,sans-Serif" font-size="10.00">+</text>
<text xml:space="preserve" text-anchor="start" x="589.25" y="-340.25" font-family="Helvetica,sans-Serif" font-size="10.00">static void ConnectSliders</text>
<text xml:space="preserve" text-anchor="start" x="589.25" y="-328.25" font-family="Helvetica,sans-Serif" font-size="10.00">ToWorldGenData(SliderAndTextInstance</text>
<text xml:space="preserve" text-anchor="start" x="589.25" y="-316.25" font-family="Helvetica,sans-Serif" font-size="10.00">[] instances, Type type, object</text>
<text xml:space="preserve" text-anchor="start" x="589.25" y="-304.25" font-family="Helvetica,sans-Serif" font-size="10.00"> obj, GameObject sliderAndTextPrefab,</text>
<text xml:space="preserve" text-anchor="start" x="589.25" y="-292.25" font-family="Helvetica,sans-Serif" font-size="10.00"> Transform parent)</text>
<text xml:space="preserve" text-anchor="start" x="580.75" y="-276.25" font-family="Helvetica,sans-Serif" font-size="10.00">&#45;</text>
<text xml:space="preserve" text-anchor="start" x="589.25" y="-276.25" font-family="Helvetica,sans-Serif" font-size="10.00">static void UpdateSlider</text>
<text xml:space="preserve" text-anchor="start" x="589.25" y="-264.25" font-family="Helvetica,sans-Serif" font-size="10.00">UIInitialState(object</text>
<text xml:space="preserve" text-anchor="start" x="589.25" y="-252.25" font-family="Helvetica,sans-Serif" font-size="10.00"> obj, SliderAndTextInstance</text>
<text xml:space="preserve" text-anchor="start" x="589.25" y="-240.25" font-family="Helvetica,sans-Serif" font-size="10.00"> instance, FieldInfo field)</text>
<polygon fill="#666666" stroke="#666666" points="575.25,-396 575.25,-396 768.75,-396 768.75,-396 575.25,-396"/>
<polygon fill="#666666" stroke="#666666" points="575.25,-380 575.25,-380 768.75,-380 768.75,-380 575.25,-380"/>
<polygon fill="none" stroke="#666666" points="575.25,-234 575.25,-414 768.75,-414 768.75,-234 575.25,-234"/>
</a>
</g>
</g>
<!-- Node8&#45;&gt;Node1 -->
<g id="edge17_Node000001_Node000008" class="edge">
<title>Node8&#45;&gt;Node1</title>
<g id="a_edge17_Node000001_Node000008"><a xlink:title=" ">
<path fill="none" stroke="#63b8ff" d="M606.19,-234.07C576.23,-198.77 538.25,-160.38 497,-134 453.89,-106.44 399.75,-88.15 354.72,-76.55"/>
<polygon fill="none" stroke="#63b8ff" points="354.8,-76.56 348.01,-79 343.16,-73.66 349.95,-71.23 354.8,-76.56"/>
</a>
</g>
<text xml:space="preserve" text-anchor="start" x="589.79" y="-171.25" font-family="Helvetica,sans-Serif" font-size="10.00" fill="grey">&#45;sliderAndTextInstances</text>
</g>
<!-- Node9 -->
<g id="Node000009" class="node">
<title>Node9</title>
<g id="a_Node000009"><a xlink:title=" ">
<polygon fill="white" stroke="none" points="608,-536 576,-536 576,-484 608,-484 608,-536"/>
<text xml:space="preserve" text-anchor="start" x="580" y="-522.25" font-family="Helvetica,sans-Serif" font-size="10.00">string</text>
<text xml:space="preserve" text-anchor="start" x="590.5" y="-506.25" font-family="Helvetica,sans-Serif" font-size="10.00"> </text>
<text xml:space="preserve" text-anchor="start" x="590.5" y="-490.25" font-family="Helvetica,sans-Serif" font-size="10.00"> </text>
<polygon fill="#666666" stroke="#666666" points="576,-518 576,-518 608,-518 608,-518 576,-518"/>
<polygon fill="#666666" stroke="#666666" points="576,-502 576,-502 608,-502 608,-502 576,-502"/>
<polygon fill="none" stroke="#666666" points="576,-484 576,-536 608,-536 608,-484 576,-484"/>
</a>
</g>
</g>
<!-- Node9&#45;&gt;Node8 -->
<g id="edge18_Node000008_Node000009" class="edge">
<title>Node9&#45;&gt;Node8</title>
<g id="a_edge18_Node000008_Node000009"><a xlink:title=" ">
<path fill="none" stroke="#63b8ff" d="M602.79,-484.18C609.55,-468.64 618.76,-447.46 628.25,-425.62"/>
<polygon fill="none" stroke="#63b8ff" points="628.24,-425.65 626.96,-418.55 633.02,-414.65 634.3,-421.74 628.24,-425.65"/>
</a>
</g>
<text xml:space="preserve" text-anchor="start" x="627.83" y="-445.25" font-family="Helvetica,sans-Serif" font-size="10.00" fill="grey">+name</text>
</g>
<!-- Node10 -->
<g id="Node000010" class="node">
<title>Node10</title>
<g id="a_Node000010"><a xlink:title=" ">
<polygon fill="white" stroke="none" points="717.62,-536 626.38,-536 626.38,-484 717.62,-484 717.62,-536"/>
<text xml:space="preserve" text-anchor="start" x="630.38" y="-522.25" font-family="Helvetica,sans-Serif" font-size="10.00">TextMeshProUGUI</text>
<text xml:space="preserve" text-anchor="start" x="670.5" y="-506.25" font-family="Helvetica,sans-Serif" font-size="10.00"> </text>
<text xml:space="preserve" text-anchor="start" x="670.5" y="-490.25" font-family="Helvetica,sans-Serif" font-size="10.00"> </text>
<polygon fill="#666666" stroke="#666666" points="626.38,-518 626.38,-518 717.62,-518 717.62,-518 626.38,-518"/>
<polygon fill="#666666" stroke="#666666" points="626.38,-502 626.38,-502 717.62,-502 717.62,-502 626.38,-502"/>
<polygon fill="none" stroke="#666666" points="626.38,-484 626.38,-536 717.62,-536 717.62,-484 626.38,-484"/>
</a>
</g>
</g>
<!-- Node10&#45;&gt;Node8 -->
<g id="edge19_Node000008_Node000010" class="edge">
<title>Node10&#45;&gt;Node8</title>
<g id="a_edge19_Node000008_Node000010"><a xlink:title=" ">
<path fill="none" stroke="#63b8ff" d="M672,-484.18C672,-468.92 672,-448.24 672,-426.83"/>
<polygon fill="none" stroke="#63b8ff" points="672,-426.72 668,-420.72 672,-414.72 676,-420.72 672,-426.72"/>
</a>
</g>
<text xml:space="preserve" text-anchor="start" x="675" y="-453.25" font-family="Helvetica,sans-Serif" font-size="10.00" fill="grey">+text</text>
<text xml:space="preserve" text-anchor="start" x="675" y="-437.25" font-family="Helvetica,sans-Serif" font-size="10.00" fill="grey">+totalText</text>
</g>
<!-- Node11 -->
<g id="Node000011" class="node">
<title>Node11</title>
<g id="a_Node000011"><a xlink:title=" ">
<polygon fill="white" stroke="none" points="768.38,-536 735.62,-536 735.62,-484 768.38,-484 768.38,-536"/>
<text xml:space="preserve" text-anchor="start" x="739.62" y="-522.25" font-family="Helvetica,sans-Serif" font-size="10.00">Slider</text>
<text xml:space="preserve" text-anchor="start" x="750.5" y="-506.25" font-family="Helvetica,sans-Serif" font-size="10.00"> </text>
<text xml:space="preserve" text-anchor="start" x="750.5" y="-490.25" font-family="Helvetica,sans-Serif" font-size="10.00"> </text>
<polygon fill="#666666" stroke="#666666" points="735.62,-518 735.62,-518 768.38,-518 768.38,-518 735.62,-518"/>
<polygon fill="#666666" stroke="#666666" points="735.62,-502 735.62,-502 768.38,-502 768.38,-502 735.62,-502"/>
<polygon fill="none" stroke="#666666" points="735.62,-484 735.62,-536 768.38,-536 768.38,-484 735.62,-484"/>
</a>
</g>
</g>
<!-- Node11&#45;&gt;Node8 -->
<g id="edge20_Node000008_Node000011" class="edge">
<title>Node11&#45;&gt;Node8</title>
<g id="a_edge20_Node000008_Node000011"><a xlink:title=" ">
<path fill="none" stroke="#63b8ff" d="M744.56,-484.05C739.78,-468.81 733.14,-449.05 726,-432 725.1,-429.86 724.19,-427.71 723.24,-425.54"/>
<polygon fill="none" stroke="#63b8ff" points="723.3,-425.67 717.2,-421.82 718.41,-414.71 724.51,-418.56 723.3,-425.67"/>
</a>
</g>
<text xml:space="preserve" text-anchor="start" x="741.48" y="-445.25" font-family="Helvetica,sans-Serif" font-size="10.00" fill="grey">+slider</text>
</g>
</g>
</svg>
